<?xml version="1.0" encoding="UTF-8" standalone="no"?><!-- Generator: Gravit.io --><svg xmlns="http://www.w3.org/2000/svg" xmlns:xlink="http://www.w3.org/1999/xlink" style="isolation:isolate" viewBox="0 0 1920 760" width="1920pt" height="760pt"><defs><clipPath id="_clipPath_GrKazIuRnaiTvjrobqOmETANrdI0i7u3"><rect width="1920" height="760"/></clipPath></defs><g clip-path="url(#_clipPath_GrKazIuRnaiTvjrobqOmETANrdI0i7u3)"><path d=" M 0 0 L 0 760 L 1920 760 L 1920 0 L 0 0 Z " fill="rgb(244,13,0)"/><g><path d=" M 1671.698 654.316 C 1671.698 654.316 1636.123 724.709 1666.4 724.709 C 1666.4 724.709 2078.159 726.223 2088.755 706.543 C 2096.179 692.755 2092.086 643.672 2088.97 615.517 C 2087.713 604.156 2077.795 595.757 2066.382 596.39 C 1983.878 600.944 1675.656 617.82 1676.996 615.714 C 1679.646 611.551 1677.753 612.686 1677.753 612.686 C 1677.753 612.686 1665.643 651.289 1671.698 654.316 Z " fill="rgb(215,131,58)"/><g opacity="0.1"><path d=" M 2089.726 615.517 C 2088.47 604.156 2078.552 595.757 2067.139 596.39 C 1984.635 600.944 1676.413 617.82 1677.753 615.714 C 1680.403 611.551 1678.51 612.686 1678.51 612.686 C 1678.51 612.686 1675.807 621.304 1673.594 630.715 C 1673.907 630.684 1674.142 630.98 1673.12 632.778 Q 1672.984 633.386 1672.851 633.995 C 1685.196 635.215 1981.236 619.005 2061.84 614.556 C 2073.254 613.923 2083.172 622.322 2084.428 633.683 C 2086.745 654.616 2089.601 687.114 2087.863 708.077 C 2088.533 707.713 2089.1 707.185 2089.512 706.543 C 2096.936 692.755 2092.843 643.672 2089.726 615.517 Z " fill="rgb(0,0,0)"/></g><path d=" M 1714.1 548.823 C 1710.156 547.614 1705.165 546.053 1705.615 543.508 C 1705.854 542.156 1707.664 541.101 1708.975 539.968 C 1711.502 537.782 1712.183 534.704 1709.469 532.594 C 1706.754 530.483 1700.216 530.201 1697.821 532.434 C 1696.589 533.583 1696.663 535.024 1696.027 536.322 C 1694.043 540.37 1686.015 542.148 1679.195 543.72 C 1672.374 545.293 1664.744 548.219 1665.385 552.408 C 1666.084 556.976 1676.605 561.029 1672.372 564.925 C 1670.837 566.338 1667.608 567.126 1666.921 568.742 C 1666.437 569.879 1667.408 571.035 1668.351 572.074 L 1675.051 579.455 C 1677.717 582.392 1680.463 585.588 1679.57 588.857 C 1677.801 595.336 1663.417 597.815 1652.016 597.087 C 1647.841 596.82 1642.934 596.455 1640.065 598.21 C 1637.855 599.562 1637.858 601.668 1638.593 603.47 C 1640.485 608.109 1646.536 612.127 1654.279 613.886 C 1645.6 615.598 1642.191 622.816 1648.184 626.792 C 1644.755 627.972 1641.047 628.078 1637.556 627.097 C 1634.592 629.826 1636.335 633.57 1640.094 635.957 C 1643.853 638.344 1649.178 639.687 1654.334 640.962 L 1649.509 645.474 C 1653.001 648.201 1660.542 647.24 1665.627 645.516 C 1670.713 643.792 1676.231 641.478 1681.929 642.38 C 1687.273 643.226 1691.315 646.79 1696.756 646.18 C 1700.973 645.707 1702.979 642.997 1704.293 640.658 L 1709.878 630.715 C 1717.827 631.959 1726.186 626.512 1722.993 622.168 C 1731.889 623.123 1740.645 617.346 1737.725 612.448 C 1742.462 616.102 1745.798 620.347 1747.43 624.799 C 1748.159 626.788 1748.603 628.891 1750.589 630.576 C 1753.221 632.534 1756.617 633.149 1759.768 632.237 C 1758.146 635.383 1756.832 639.052 1760.166 641.721 C 1763.499 644.39 1773.118 643.633 1772.694 640.363 C 1777.777 642.547 1783.474 644.6 1789.827 644.763 C 1796.18 644.926 1803.133 642.508 1803.711 638.888 C 1812.664 641.841 1822.031 643.348 1831.458 643.354 C 1832.26 640.931 1837.861 640.148 1842.048 640.74 C 1846.235 641.332 1850.119 642.754 1854.433 642.757 C 1858.746 642.759 1863.385 640.163 1861.177 638.045 C 1870.259 639.945 1879.583 640.416 1888.811 639.44 C 1897.516 638.516 1905.766 636.319 1914.581 635.845 C 1923.523 635.301 1932.475 636.715 1940.814 639.989 C 1943.704 641.2 1947.296 642.726 1950.471 641.775 C 1952.271 641.236 1953.147 640.072 1954.37 639.144 C 1959.635 635.149 1970.401 635.915 1978.708 637.486 C 1987.015 639.056 1996.677 640.947 2003.955 638.171 C 2006.701 637.124 2008.725 635.505 2011.646 634.626 C 2022.11 631.476 2034.635 639.547 2045.742 637.225 C 2049.359 636.469 2052.294 634.659 2056.125 634.436 C 2062.921 634.04 2067.412 638.646 2074.02 639.637 C 2080.876 640.665 2088.308 636.493 2086.636 632.556 C 2093.225 632.702 2099.796 631.789 2106.096 629.851 L 2102.983 624.249 C 2110.739 624.124 2116.444 618.564 2112.851 614.633 C 2120.629 613.152 2126.778 609.165 2128.377 604.569 C 2129.976 599.972 2126.961 594.944 2120.766 591.875 C 2117.11 590.063 2112.308 588.79 2110.218 586.295 C 2108.713 584.498 2108.932 582.409 2108.347 580.445 C 2107.066 576.147 2101.513 572.352 2094.339 570.873 C 2091.223 570.23 2087.814 569.986 2084.993 568.994 C 2082.172 568.001 2080.135 565.852 2081.763 564.203 C 2082.624 563.33 2084.284 562.816 2085.357 562.024 C 2089.708 558.81 2082.247 554.744 2075.878 552.94 L 2091.088 552.442 L 2094.354 537.634 C 2088.336 542.528 2072.726 541.499 2068.816 535.95 C 2073.702 537.553 2080.255 535.503 2082.643 532.586 C 2085.032 529.67 2084.445 526.278 2083.808 523.078 C 2083.685 521.461 2082.722 520.027 2081.273 519.301 C 2079.784 518.592 2077.412 518.296 2076.924 517.224 C 2076.425 516.13 2078.351 515.163 2078.637 514.044 C 2079.185 511.897 2074.25 510.951 2070.917 509.913 C 2063.054 507.463 2059.247 500.579 2050.3 500.802 C 2041.423 501.025 2038.942 507.802 2038.936 512.882 C 2038.93 517.961 2035.926 524.754 2027.042 524.662 C 2023.494 524.625 2020.401 523.349 2017.569 522.128 L 1992.124 511.154 C 1988.763 509.59 1985.265 508.336 1981.675 507.408 C 1976.543 506.21 1970.873 506.069 1965.334 505.943 L 1929.74 505.134 C 1927.927 504.991 1926.103 505.148 1924.341 505.598 C 1922.472 506.223 1921.563 507.453 1920.437 508.51 C 1915.481 513.164 1903.828 514.986 1895.418 512.423 C 1893.189 511.744 1891.191 510.807 1888.828 510.295 C 1881.386 508.682 1873.576 511.666 1865.844 512.744 C 1853.168 514.511 1837.416 511.47 1828.278 516.793 C 1825.231 518.568 1823.615 520.995 1820.792 522.887 C 1817.968 524.779 1812.874 526.062 1809.313 524.633 C 1809.76 528.105 1810.168 531.727 1807.818 534.939 C 1805.468 538.15 1799.44 540.771 1793.518 539.961 C 1790.375 539.13 1790.623 536.488 1792.109 534.701 C 1793.596 532.913 1795.876 531.086 1795.135 529.153 C 1794.399 527.234 1791.035 526.119 1788.519 524.781 C 1786.004 523.444 1784.326 520.91 1786.997 519.676 C 1785.197 517.362 1778.725 517.644 1775.879 519.584 C 1773.032 521.525 1772.747 524.258 1772.437 526.784 C 1772.127 529.311 1771.45 532.078 1768.152 533.769 C 1762.531 536.651 1751.739 535.156 1748.011 538.909 C 1746.827 540.101 1746.757 541.54 1746.079 542.855 C 1743.055 548.725 1729.999 550.246 1719.327 550.725 C 1719.102 551.946 1719.052 553.193 1719.178 554.429 C 1722.829 552.849 1716.746 549.633 1714.1 548.823 Z " fill="rgb(97,171,67)"/><g opacity="0.1"><path d=" M 1672.553 564.738 C 1674.719 563.928 1676.938 563.267 1679.195 562.76 C 1686.015 561.187 1694.043 559.409 1696.027 555.361 C 1696.663 554.064 1696.589 552.623 1697.821 551.474 C 1700.216 549.24 1706.754 549.522 1709.469 551.633 C 1712.183 553.744 1711.502 556.822 1708.975 559.007 C 1707.664 560.141 1705.854 561.196 1705.615 562.548 C 1705.165 565.093 1710.156 566.653 1714.1 567.862 C 1715.956 568.459 1717.694 569.376 1719.235 570.57 C 1719.268 570.3 1719.301 570.031 1719.327 569.764 C 1729.999 569.285 1743.055 567.765 1746.08 561.894 C 1746.757 560.579 1746.827 559.141 1748.011 557.948 C 1751.739 554.195 1762.531 555.69 1768.152 552.809 C 1771.45 551.118 1772.127 548.35 1772.437 545.824 C 1772.748 543.297 1773.032 540.564 1775.879 538.624 C 1778.726 536.683 1785.197 536.401 1786.998 538.715 C 1784.326 539.949 1786.004 542.484 1788.519 543.821 C 1791.035 545.158 1794.399 546.274 1795.135 548.192 C 1795.876 550.125 1793.596 551.952 1792.11 553.74 C 1790.623 555.528 1790.375 558.169 1793.518 559 C 1799.44 559.81 1805.468 557.189 1807.818 553.978 C 1810.168 550.767 1809.761 547.144 1809.313 543.673 C 1812.874 545.101 1817.968 543.818 1820.792 541.926 C 1823.615 540.035 1825.231 537.608 1828.278 535.833 C 1837.416 530.509 1853.168 533.551 1865.844 531.784 C 1873.576 530.705 1881.386 527.721 1888.828 529.334 C 1891.191 529.846 1893.189 530.783 1895.418 531.463 C 1903.828 534.026 1915.481 532.203 1920.437 527.549 C 1921.563 526.492 1922.472 525.262 1924.341 524.637 C 1926.103 524.188 1927.927 524.031 1929.74 524.173 Q 1947.537 524.578 1965.334 524.982 C 1970.873 525.108 1976.543 525.249 1981.675 526.447 C 1985.265 527.375 1988.763 528.629 1992.124 530.193 Q 2004.847 535.68 2017.569 541.167 C 2020.401 542.389 2023.494 543.664 2027.042 543.701 C 2035.926 543.794 2038.93 537.001 2038.936 531.921 C 2038.942 526.841 2041.423 520.064 2050.3 519.842 C 2059.247 519.618 2063.054 526.502 2070.918 528.952 C 2074.25 529.991 2079.186 530.937 2078.637 533.084 C 2078.382 534.08 2076.831 534.957 2076.846 535.91 C 2079.06 535.388 2081.075 534.234 2082.644 532.586 C 2085.032 529.67 2084.445 526.278 2083.808 523.078 C 2083.685 521.461 2082.723 520.027 2081.273 519.301 C 2079.784 518.592 2077.412 518.296 2076.924 517.224 C 2076.425 516.13 2078.351 515.163 2078.637 514.045 C 2079.186 511.898 2074.25 510.951 2070.918 509.913 C 2063.054 507.463 2059.247 500.579 2050.3 500.803 C 2041.423 501.025 2038.942 507.802 2038.936 512.882 C 2038.93 517.962 2035.926 524.754 2027.042 524.662 C 2023.494 524.625 2020.401 523.349 2017.569 522.128 Q 2004.847 516.641 1992.124 511.154 C 1988.763 509.59 1985.265 508.336 1981.675 507.408 C 1976.543 506.21 1970.873 506.069 1965.334 505.943 Q 1947.537 505.538 1929.74 505.134 C 1927.927 504.992 1926.103 505.148 1924.341 505.598 C 1922.472 506.223 1921.563 507.453 1920.437 508.51 C 1915.481 513.164 1903.828 514.986 1895.418 512.423 C 1893.188 511.744 1891.191 510.807 1888.828 510.295 C 1881.386 508.682 1873.576 511.666 1865.844 512.744 C 1853.168 514.511 1837.416 511.47 1828.278 516.794 C 1825.231 518.569 1823.615 520.995 1820.792 522.887 C 1817.968 524.779 1812.874 526.062 1809.313 524.633 C 1809.761 528.105 1810.168 531.727 1807.818 534.939 C 1805.468 538.15 1799.44 540.771 1793.518 539.961 C 1790.375 539.13 1790.623 536.488 1792.11 534.701 C 1793.596 532.913 1795.876 531.086 1795.135 529.153 C 1794.399 527.234 1791.035 526.119 1788.519 524.781 C 1786.004 523.444 1784.326 520.91 1786.998 519.676 C 1785.197 517.362 1778.726 517.644 1775.879 519.585 C 1773.032 521.525 1772.748 524.258 1772.437 526.784 C 1772.127 529.311 1771.45 532.078 1768.152 533.769 C 1762.531 536.651 1751.739 535.156 1748.011 538.909 C 1746.827 540.101 1746.757 541.54 1746.08 542.855 C 1743.055 548.725 1729.999 550.246 1719.327 550.725 C 1719.301 550.992 1719.268 551.261 1719.235 551.531 C 1717.694 550.336 1715.956 549.42 1714.1 548.823 C 1710.156 547.614 1705.165 546.053 1705.615 543.508 C 1705.854 542.156 1707.664 541.101 1708.975 539.968 C 1711.502 537.782 1712.183 534.704 1709.469 532.594 C 1706.754 530.483 1700.216 530.201 1697.821 532.434 C 1696.589 533.583 1696.663 535.024 1696.027 536.322 C 1694.043 540.37 1686.015 542.148 1679.195 543.72 C 1672.374 545.293 1664.744 548.219 1665.385 552.408 C 1666.073 556.903 1676.262 560.9 1672.553 564.738 Z " fill="rgb(0,0,0)"/></g><ellipse vector-effect="non-scaling-stroke" cx="1886.4734013966877" cy="509.32322909018876" rx="113.53641403251095" ry="74.93403440150334" fill="rgb(234,86,92)"/><g opacity="0.2"><path d=" M 1847.871 504.025 C 1847.871 504.025 1796.401 509.323 1811.539 487.373 C 1811.539 487.373 1845.6 457.853 1854.683 463.909 C 1854.683 463.909 1867.551 486.616 1866.037 486.616 C 1866.037 486.616 1842.573 473.748 1835.004 483.588 C 1827.434 493.428 1847.871 504.025 1847.871 504.025 Z " fill="rgb(255,255,255)"/></g><g opacity="0.2"><path d=" M 1892.468 506.17 C 1892.468 506.17 1934.971 535.678 1909.187 542.471 C 1909.187 542.471 1864.115 542.681 1861.168 532.17 C 1861.168 532.17 1866.196 506.559 1867.345 507.545 C 1867.345 507.545 1876.766 532.593 1888.919 530.058 C 1901.071 527.523 1892.468 506.17 1892.468 506.17 Z " fill="rgb(255,255,255)"/></g><g opacity="0.2"><path d=" M 1902.391 487.678 C 1902.391 487.678 1905.745 436.045 1924.865 454.63 C 1924.865 454.63 1948.295 493.134 1940.81 501.081 C 1940.81 501.081 1916.276 509.984 1916.528 508.491 C 1916.528 508.491 1933.127 487.5 1924.686 478.397 C 1916.245 469.293 1902.391 487.678 1902.391 487.678 Z " fill="rgb(255,255,255)"/></g><ellipse vector-effect="non-scaling-stroke" cx="1749.4727861370939" cy="503.26795012831167" rx="113.53641403251095" ry="74.9340344015034" fill="rgb(234,86,92)"/><g opacity="0.2"><path d=" M 1710.87 497.97 C 1710.87 497.97 1659.401 503.268 1674.539 481.318 C 1674.539 481.318 1708.6 451.798 1717.683 457.853 C 1717.683 457.853 1730.55 480.561 1729.036 480.561 C 1729.036 480.561 1705.572 467.693 1698.003 477.533 C 1690.434 487.373 1710.87 497.97 1710.87 497.97 Z " fill="rgb(255,255,255)"/></g><g opacity="0.2"><path d=" M 1755.468 500.115 C 1755.468 500.115 1797.971 529.623 1772.186 536.416 C 1772.186 536.416 1727.114 536.626 1724.167 526.115 C 1724.167 526.115 1729.196 500.504 1730.344 501.49 C 1730.344 501.49 1739.765 526.538 1751.918 524.003 C 1764.071 521.468 1755.468 500.115 1755.468 500.115 Z " fill="rgb(255,255,255)"/></g><g opacity="0.2"><path d=" M 1765.39 481.622 C 1765.39 481.622 1768.744 429.99 1787.865 448.574 C 1787.865 448.574 1811.294 487.079 1803.81 495.026 C 1803.81 495.026 1779.276 503.928 1779.528 502.436 C 1779.528 502.436 1796.126 481.444 1787.685 472.341 C 1779.245 463.238 1765.39 481.622 1765.39 481.622 Z " fill="rgb(255,255,255)"/></g><g opacity="0.1"><path d=" M 1808.558 439.496 C 1833.288 453.242 1849.006 473.825 1849.006 496.834 C 1849.006 538.219 1798.174 571.768 1735.47 571.768 C 1713.984 571.768 1693.894 567.828 1676.763 560.985 C 1696.513 571.962 1722.009 578.58 1749.851 578.58 C 1812.556 578.58 1863.388 545.031 1863.388 503.646 C 1863.388 476.442 1841.421 452.625 1808.558 439.496 Z " fill="rgb(0,0,0)"/></g><g opacity="0.1"><path d=" M 1945.559 444.794 C 1970.289 458.54 1986.007 479.123 1986.007 502.133 C 1986.007 543.517 1935.175 577.067 1872.471 577.067 C 1850.985 577.067 1830.894 573.126 1813.764 566.283 C 1833.514 577.261 1859.01 583.879 1886.852 583.879 C 1949.556 583.879 2000.388 550.33 2000.388 508.945 C 2000.388 481.74 1978.422 457.923 1945.559 444.794 Z " fill="rgb(0,0,0)"/></g><path d=" M 1680.474 488.912 C 1680.474 488.912 1778.115 384.459 2017.299 427.603 C 2206.375 461.708 2051.111 520.41 1977.76 543.508 C 1956.479 550.206 1934.433 554.176 1912.152 555.32 C 1829.401 559.581 1621.257 563.391 1680.474 488.912 Z " fill="rgb(113,75,79)"/><g opacity="0.1"><path d=" M 1977.76 520.044 C 1956.479 526.742 1934.433 530.711 1912.152 531.856 C 1845.115 535.308 1695.794 538.461 1672.98 499.939 C 1644.173 562.204 1834.033 558.586 1912.152 554.563 C 1934.433 553.419 1956.479 549.45 1977.76 542.751 C 2031.525 525.82 2129.293 489.762 2103.215 458.281 C 2085.656 482.986 2018.855 507.103 1977.76 520.044 Z " fill="rgb(0,0,0)"/></g><g opacity="0.1"><mask id="_mask_eopNhSy1r8b1QCfWLmhZSsYUEHYsA5eA" x="-200%" y="-200%" width="400%" height="400%"><rect x="-200%" y="-200%" width="400%" height="400%" style="fill:white;"/><line x1="1889.002" y1="427.981" x2="1915.494" y2="480.208" fill="black" stroke="none"/></mask><line x1="1889.002" y1="427.981" x2="1915.494" y2="480.208" mask="url(#_mask_eopNhSy1r8b1QCfWLmhZSsYUEHYsA5eA)" vector-effect="non-scaling-stroke" stroke-width="4" stroke="rgb(0,0,0)" stroke-linejoin="miter" stroke-linecap="butt" stroke-miterlimit="10"/></g><g opacity="0.1"><mask id="_mask_5w62mZRe9p31zWOwivtMLhkDMT9RU9bq" x="-200%" y="-200%" width="400%" height="400%"><rect x="-200%" y="-200%" width="400%" height="400%" style="fill:white;"/><line x1="1807.256" y1="446.904" x2="1829.963" y2="490.805" fill="black" stroke="none"/></mask><line x1="1807.256" y1="446.904" x2="1829.963" y2="490.805" mask="url(#_mask_5w62mZRe9p31zWOwivtMLhkDMT9RU9bq)" vector-effect="non-scaling-stroke" stroke-width="4" stroke="rgb(0,0,0)" stroke-linejoin="miter" stroke-linecap="butt" stroke-miterlimit="10"/></g><g opacity="0.1"><mask id="_mask_nlhWAM4SZX57nodqSyBAm8cqlGs1g6qf" x="-200%" y="-200%" width="400%" height="400%"><rect x="-200%" y="-200%" width="400%" height="400%" style="fill:white;"/><line x1="1936.688" y1="427.981" x2="1972.262" y2="480.208" fill="black" stroke="none"/></mask><line x1="1936.688" y1="427.981" x2="1972.262" y2="480.208" mask="url(#_mask_nlhWAM4SZX57nodqSyBAm8cqlGs1g6qf)" vector-effect="non-scaling-stroke" stroke-width="4" stroke="rgb(0,0,0)" stroke-linejoin="miter" stroke-linecap="butt" stroke-miterlimit="10"/></g><g opacity="0.1"><mask id="_mask_GxYLvpgP78zfW1Vb44beUt2kOOtknIqJ" x="-200%" y="-200%" width="400%" height="400%"><rect x="-200%" y="-200%" width="400%" height="400%" style="fill:white;"/><line x1="1807.256" y1="495.346" x2="2045.683" y2="465.07" fill="black" stroke="none"/></mask><line x1="1807.256" y1="495.346" x2="2045.683" y2="465.07" mask="url(#_mask_GxYLvpgP78zfW1Vb44beUt2kOOtknIqJ)" vector-effect="non-scaling-stroke" stroke-width="4" stroke="rgb(0,0,0)" stroke-linejoin="miter" stroke-linecap="butt" stroke-miterlimit="10"/></g><g opacity="0.1"><mask id="_mask_lzRKVoLWo08VDUQoNAS8y8UeOEYdViBW" x="-200%" y="-200%" width="400%" height="400%"><rect x="-200%" y="-200%" width="400%" height="400%" style="fill:white;"/><line x1="1760.328" y1="465.07" x2="1770.924" y2="487.02" fill="black" stroke="none"/></mask><line x1="1760.328" y1="465.07" x2="1770.924" y2="487.02" mask="url(#_mask_lzRKVoLWo08VDUQoNAS8y8UeOEYdViBW)" vector-effect="non-scaling-stroke" stroke-width="4" stroke="rgb(0,0,0)" stroke-linejoin="miter" stroke-linecap="butt" stroke-miterlimit="10"/></g><path d=" M 1795.918 393.961 C 1795.918 393.961 2013.65 392.976 2015.648 391.006 C 2015.648 391.006 2063.588 387.992 2072.577 400.797 C 2072.577 400.797 2084.563 419.513 2072.577 421.483 C 2072.577 421.483 1666.078 625.385 1666.078 625.385 C 1666.078 625.385 1644.105 627.355 1655.091 605.684 C 1666.078 584.013 1795.918 393.961 1795.918 393.961 Z " fill="rgb(246,201,100)"/><path d=" M 1887.328 484.029 C 1887.328 492.18 1848.018 512.035 1799.527 512.035 C 1751.035 512.035 1711.725 492.18 1711.725 484.029 C 1711.725 475.877 1751.035 472.675 1799.527 472.675 C 1848.018 472.675 1887.328 475.877 1887.328 484.029 Z " fill="rgb(97,171,67)"/><ellipse vector-effect="non-scaling-stroke" cx="1799.526625028503" cy="483.6504450165041" rx="87.80149744530081" ry="14.759730594095743" fill="rgb(97,171,67)"/><path d=" M 1993.295 470.405 C 1993.295 478.556 1953.985 498.41 1905.494 498.41 C 1857.003 498.41 1817.692 478.556 1817.692 470.405 C 1817.692 462.253 1857.003 459.051 1905.494 459.051 C 1953.985 459.051 1993.295 462.253 1993.295 470.405 Z " fill="rgb(97,171,67)"/><ellipse vector-effect="non-scaling-stroke" cx="1905.4939498590509" cy="470.0260768526642" rx="87.80149744530081" ry="14.759730594095743" fill="rgb(97,171,67)"/><path d=" M 2099.263 456.78 C 2099.263 464.932 2059.953 484.786 2011.461 484.786 C 1962.97 484.786 1923.66 464.932 1923.66 456.78 C 1923.66 448.629 1962.97 445.427 2011.461 445.427 C 2059.953 445.427 2099.263 448.629 2099.263 456.78 Z " fill="rgb(97,171,67)"/><ellipse vector-effect="non-scaling-stroke" cx="2011.4612746896005" cy="456.4017086888243" rx="87.80149744530081" ry="14.759730594095743" fill="rgb(97,171,67)"/><path d=" M 1688.105 460.973 C 1688.105 460.973 1651.994 455.095 1670.469 425.702 C 1670.469 425.702 1695.159 363.36 1703.221 355.999 C 1712.235 347.769 1898.276 203.477 2043.212 363.144 C 2058.566 380.262 2071.048 399.752 2080.173 420.859 C 2081.926 424.85 2083.859 428.431 2085.748 430.321 C 2091.627 436.199 2096.666 452.995 2085.748 461.393 C 2074.831 469.791 1753.189 502.543 1688.105 460.973 Z " fill="rgb(215,131,58)"/><path d=" M 1857.324 338.783 C 1855.098 340.331 1852.475 341.205 1849.766 341.302 C 1845.591 341.302 1842.208 340.175 1842.208 338.783 C 1842.208 337.392 1845.591 336.264 1849.766 336.264 C 1852.475 336.361 1855.098 337.236 1857.324 338.783 Z " fill="rgb(242,242,242)"/><path d=" M 1796.858 322.827 C 1794.633 324.375 1792.009 325.249 1789.3 325.346 C 1785.126 325.346 1781.742 324.218 1781.742 322.827 C 1781.742 321.436 1785.126 320.308 1789.3 320.308 C 1792.009 320.405 1794.633 321.279 1796.858 322.827 L 1796.858 322.827 Z " fill="rgb(242,242,242)"/><path d=" M 1961.114 346.078 C 1958.528 346.891 1955.763 346.942 1953.148 346.226 C 1949.164 344.98 1946.272 342.893 1946.687 341.565 C 1947.102 340.237 1950.669 340.171 1954.653 341.417 C 1957.209 342.319 1959.452 343.937 1961.114 346.078 L 1961.114 346.078 Z " fill="rgb(242,242,242)"/><path d=" M 1849.421 303.249 C 1846.835 304.061 1844.07 304.113 1841.455 303.397 C 1837.471 302.15 1834.579 300.064 1834.994 298.736 C 1835.41 297.408 1838.976 297.341 1842.96 298.588 C 1845.516 299.489 1847.759 301.107 1849.421 303.249 Z " fill="rgb(242,242,242)"/><path d=" M 1971.191 318.365 C 1968.605 319.178 1965.84 319.229 1963.226 318.513 C 1959.242 317.267 1956.349 315.18 1956.765 313.852 C 1957.18 312.524 1960.746 312.458 1964.73 313.704 C 1967.287 314.606 1969.529 316.224 1971.191 318.365 L 1971.191 318.365 Z " fill="rgb(242,242,242)"/><path d=" M 1946.342 316.109 C 1944.117 317.656 1941.493 318.531 1938.784 318.628 C 1934.61 318.628 1931.226 317.5 1931.226 316.109 C 1931.226 314.717 1934.61 313.589 1938.784 313.589 C 1941.493 313.686 1944.117 314.561 1946.342 316.109 L 1946.342 316.109 Z " fill="rgb(242,242,242)"/><path d=" M 1874.12 300.992 C 1871.894 302.54 1869.27 303.414 1866.562 303.512 C 1862.387 303.512 1859.003 302.384 1859.003 300.992 C 1859.003 299.601 1862.387 298.473 1866.562 298.473 C 1869.27 298.57 1871.894 299.445 1874.12 300.992 L 1874.12 300.992 Z " fill="rgb(242,242,242)"/><path d=" M 1929.546 300.992 C 1927.321 302.54 1924.697 303.414 1921.988 303.512 C 1917.814 303.512 1914.43 302.384 1914.43 300.992 C 1914.43 299.601 1917.814 298.473 1921.988 298.473 C 1924.697 298.57 1927.321 299.445 1929.546 300.992 L 1929.546 300.992 Z " fill="rgb(242,242,242)"/><path d=" M 1908.551 333.744 C 1906.326 335.292 1903.702 336.166 1900.993 336.264 C 1896.819 336.264 1893.435 335.136 1893.435 333.744 C 1893.435 332.353 1896.819 331.225 1900.993 331.225 C 1903.702 331.322 1906.326 332.197 1908.551 333.744 L 1908.551 333.744 Z " fill="rgb(242,242,242)"/><path d=" M 1847.485 327.859 C 1848.116 325.222 1849.491 322.823 1851.448 320.947 C 1854.562 318.168 1857.838 316.757 1858.765 317.795 C 1859.691 318.833 1857.917 321.928 1854.802 324.707 C 1852.716 326.438 1850.176 327.532 1847.485 327.859 L 1847.485 327.859 Z " fill="rgb(242,242,242)"/><path d=" M 1809.694 318.621 C 1810.325 315.985 1811.7 313.585 1813.657 311.709 C 1816.771 308.93 1820.047 307.519 1820.974 308.557 C 1821.9 309.596 1820.126 312.69 1817.011 315.469 C 1814.925 317.2 1812.385 318.294 1809.694 318.621 L 1809.694 318.621 Z " fill="rgb(242,242,242)"/><path d=" M 1744.19 363.97 C 1744.821 361.334 1746.196 358.934 1748.153 357.058 C 1751.267 354.279 1754.543 352.868 1755.47 353.906 C 1756.396 354.945 1754.622 358.039 1751.507 360.818 C 1749.421 362.549 1746.881 363.643 1744.19 363.97 L 1744.19 363.97 Z " fill="rgb(242,242,242)"/><path d=" M 1889.475 313.582 C 1890.105 310.946 1891.481 308.547 1893.437 306.671 C 1896.552 303.892 1899.828 302.48 1900.754 303.519 C 1901.681 304.557 1899.907 307.651 1896.792 310.43 C 1894.706 312.161 1892.166 313.255 1889.475 313.582 L 1889.475 313.582 Z " fill="rgb(242,242,242)"/><path d=" M 1874.359 343.815 C 1874.989 341.179 1876.364 338.779 1878.321 336.903 C 1881.436 334.124 1884.712 332.713 1885.638 333.751 C 1886.564 334.789 1884.79 337.884 1881.676 340.663 C 1879.59 342.394 1877.05 343.488 1874.359 343.815 Z " fill="rgb(242,242,242)"/></g><g><circle vector-effect="non-scaling-stroke" cx="82.46818605229166" cy="430.46818605229146" r="247.46818605229166" fill="rgb(255,255,255)"/><g opacity="0.2"><path d=" M 82.468 611.096 C -3.704 611.096 -77.876 550.224 -94.687 465.707 C -111.498 381.19 -66.266 296.568 13.347 263.592 C 92.96 230.615 184.781 258.469 232.655 330.119 C 280.53 401.768 271.125 497.259 210.192 558.192 C 176.391 592.177 130.4 611.227 82.468 611.096 L 82.468 611.096 Z  M 82.468 260.98 C -10.988 260.98 -87.02 337.012 -87.02 430.468 C -87.02 523.924 -10.988 599.956 82.468 599.956 C 175.924 599.956 251.956 523.924 251.956 430.468 C 251.956 337.012 175.924 260.98 82.468 260.98 Z " fill="rgb(0,0,0)"/></g><circle vector-effect="non-scaling-stroke" cx="82.46818605229222" cy="430.4681860522914" r="175.0578752132555" fill="rgb(232,232,232)"/><path d=" M -47.719 360.47 C -51.33 353.396 -50.891 344.931 -46.566 338.269 C -42.241 331.607 -34.688 327.761 -26.756 328.181 C -18.824 328.601 -11.72 333.224 -8.123 340.306 L 41.335 437.427 C 44.947 444.501 44.508 452.965 40.182 459.628 C 35.857 466.29 28.304 470.136 20.373 469.716 C 12.441 469.295 5.337 464.673 1.74 457.591 L -47.719 360.47 Z " fill="rgb(255,101,132)"/><g opacity="0.2"><path d=" M -42.202 371.302 L -44.485 366.82 C -33.093 357.968 -19.715 351.458 -4.889 346.656 L -2.607 351.139 C -18.653 354.48 -32.304 360.664 -42.202 371.302 Z " fill="rgb(0,0,0)"/></g><g opacity="0.2"><path d=" M -31.549 392.221 L -33.832 387.738 C -22.44 378.887 -9.062 372.377 5.763 367.575 L 8.046 372.057 C -8 375.398 -21.651 381.582 -31.549 392.221 Z " fill="rgb(0,0,0)"/></g><g opacity="0.2"><path d=" M -20.897 413.139 L -23.18 408.657 C -11.787 399.805 1.59 393.295 16.416 388.493 L 18.699 392.975 C 2.653 396.317 -10.999 402.501 -20.897 413.139 Z " fill="rgb(0,0,0)"/></g><g opacity="0.2"><path d=" M -10.244 434.058 L -12.527 429.575 C -1.135 420.723 12.243 414.213 27.068 409.411 L 29.351 413.894 C 13.305 417.235 -0.346 423.419 -10.244 434.058 Z " fill="rgb(0,0,0)"/></g><g opacity="0.2"><path d=" M 0.408 454.976 L -1.874 450.493 C 9.518 441.642 22.895 435.132 37.721 430.33 L 40.004 434.812 C 23.958 438.154 10.306 444.337 0.408 454.976 Z " fill="rgb(0,0,0)"/></g><path d=" M -84.824 396.828 C -88.435 389.754 -87.995 381.291 -83.669 374.629 C -79.344 367.968 -71.792 364.122 -63.861 364.542 C -55.93 364.962 -48.826 369.584 -45.228 376.665 L 4.23 473.785 C 9.783 484.717 5.43 498.08 -5.496 503.644 C -16.422 509.208 -29.79 504.869 -35.365 493.949 L -84.824 396.828 Z " fill="rgb(255,101,132)"/><g opacity="0.2"><path d=" M -79.307 407.661 L -81.59 403.179 C -70.198 394.327 -56.82 387.817 -41.994 383.015 L -39.712 387.497 C -55.758 390.839 -69.409 397.022 -79.307 407.661 Z " fill="rgb(0,0,0)"/></g><g opacity="0.2"><path d=" M -68.655 428.579 L -70.937 424.097 C -59.545 415.245 -46.168 408.735 -31.342 403.933 L -29.059 408.416 C -45.105 411.757 -58.756 417.941 -68.655 428.579 Z " fill="rgb(0,0,0)"/></g><g opacity="0.2"><path d=" M -58.002 449.498 L -60.285 445.015 C -48.893 436.164 -35.515 429.654 -20.689 424.851 L -18.407 429.334 C -34.453 432.675 -48.104 438.859 -58.002 449.498 Z " fill="rgb(0,0,0)"/></g><g opacity="0.2"><path d=" M -47.349 470.416 L -49.632 465.934 C -38.24 457.082 -24.862 450.572 -10.037 445.77 L -7.754 450.252 C -23.8 453.594 -37.451 459.777 -47.349 470.416 Z " fill="rgb(0,0,0)"/></g><g opacity="0.2"><path d=" M -36.697 491.334 L -38.98 486.852 C -27.587 478 -14.21 471.49 0.616 466.688 L 2.899 471.171 C -13.147 474.512 -26.799 480.696 -36.697 491.334 Z " fill="rgb(0,0,0)"/></g><path d=" M 199.439 436.038 L 199.595 436.038 C 210.497 436.13 220.343 429.535 224.407 419.418 C 228.492 409.093 230.55 398.079 230.47 386.975 C 230.192 339.979 191.959 301.425 144.966 300.775 C 103.705 300.197 67.748 328.766 58.984 369.091 C 50.22 409.415 71.076 450.331 108.856 466.932 C 118.767 471.32 130.356 469.171 138.035 461.521 C 154.288 445.182 176.393 436.009 199.439 436.038 Z " fill="rgb(255,255,255)"/><circle vector-effect="non-scaling-stroke" cx="154.87848665496537" cy="381.1336874326884" r="28.64583691754077" fill="rgb(249,168,37)"/><circle vector-effect="non-scaling-stroke" cx="92.62077447326776" cy="374.5378665806018" r="3.3746114926102564" fill="rgb(63,61,86)"/><circle vector-effect="non-scaling-stroke" cx="-18.77969901615881" cy="377.72073052497575" r="3.374611492610253" fill="rgb(63,61,86)"/><circle vector-effect="non-scaling-stroke" cx="110.60591039245868" cy="339.56463695305314" r="3.3746114926102564" fill="rgb(63,61,86)"/><circle vector-effect="non-scaling-stroke" cx="110.51003661834041" cy="436.83392417740157" r="3.3746114926102564" fill="rgb(63,61,86)"/><circle vector-effect="non-scaling-stroke" cx="177.35032275926875" cy="332.5949124764508" r="3.3746114926102564" fill="rgb(63,61,86)"/><circle vector-effect="non-scaling-stroke" cx="-40.676312948479115" cy="424.8981613541834" r="3.3746114926102493" fill="rgb(63,61,86)"/><circle vector-effect="non-scaling-stroke" cx="-16.00906363867736" cy="473.43693631042055" r="3.374611492610253" fill="rgb(63,61,86)"/><circle vector-effect="non-scaling-stroke" cx="138.96413622400746" cy="479.8026744355307" r="12.731486486583492" fill="rgb(255,101,132)"/><g opacity="0.2"><path d=" M 148.513 480.598 C 148.513 485.872 144.238 490.147 138.964 490.147 C 133.691 490.147 129.416 485.872 129.416 480.598" fill="rgb(0,0,0)"/></g><g opacity="0.2"><path d=" M 129.416 479.007 C 129.416 473.733 133.691 469.458 138.964 469.458 C 144.238 469.458 148.513 473.733 148.513 479.007" fill="rgb(0,0,0)"/></g><ellipse vector-effect="non-scaling-stroke" cx="134.18983518926566" cy="475.4262301142909" rx="0.7957134270027382" ry="1.1935803768669189" fill="rgb(255,101,132)"/><ellipse vector-effect="non-scaling-stroke" cx="138.96413622400794" cy="473.83479302392226" rx="0.7957134270027382" ry="1.1935803768669189" fill="rgb(255,101,132)"/><ellipse vector-effect="non-scaling-stroke" cx="138.96413622400794" cy="484.17912899313484" rx="0.7957134270027382" ry="1.1935803768669189" fill="rgb(255,101,132)"/><ellipse vector-effect="non-scaling-stroke" cx="143.73843725874934" cy="477.8133806316617" rx="0.7957134270027382" ry="1.1935803768669189" fill="rgb(255,101,132)"/><ellipse vector-effect="non-scaling-stroke" cx="142.942723831747" cy="486.56627951050575" rx="0.7957134270027382" ry="1.1935803768669189" fill="rgb(255,101,132)"/><ellipse vector-effect="non-scaling-stroke" cx="133.39411152590037" cy="482.58769190276655" rx="0.7957134270027382" ry="1.1935803768669189" fill="rgb(255,101,132)"/><circle vector-effect="non-scaling-stroke" cx="164.42709896081212" cy="445.5868230562457" r="12.731486486583492" fill="rgb(255,101,132)"/><g opacity="0.2"><path d=" M 173.976 446.383 C 173.976 451.656 169.701 455.931 164.427 455.931 C 159.154 455.931 154.878 451.656 154.878 446.383" fill="rgb(0,0,0)"/></g><g opacity="0.2"><path d=" M 154.878 444.791 C 154.878 439.518 159.154 435.242 164.427 435.242 C 169.701 435.242 173.976 439.518 173.976 444.791" fill="rgb(0,0,0)"/></g><ellipse vector-effect="non-scaling-stroke" cx="159.65279792606952" cy="441.21036849864225" rx="0.7957134270027382" ry="1.1935803768669189" fill="rgb(255,101,132)"/><ellipse vector-effect="non-scaling-stroke" cx="164.42709896081178" cy="439.6189416446368" rx="0.7957134270027382" ry="1.1935803768669189" fill="rgb(255,101,132)"/><ellipse vector-effect="non-scaling-stroke" cx="164.42709896081178" cy="449.9632673774862" rx="0.7957134270027382" ry="1.1935803768669189" fill="rgb(255,101,132)"/><ellipse vector-effect="non-scaling-stroke" cx="169.2014102319166" cy="443.5975292523759" rx="0.7957134270027382" ry="1.1935803768669189" fill="rgb(255,101,132)"/><ellipse vector-effect="non-scaling-stroke" cx="168.4056865685514" cy="452.35041789485734" rx="0.7957134270027382" ry="1.1935803768669189" fill="rgb(255,101,132)"/><ellipse vector-effect="non-scaling-stroke" cx="158.85707426270423" cy="448.37183028711814" rx="0.7957134270027382" ry="1.1935803768669189" fill="rgb(255,101,132)"/><circle vector-effect="non-scaling-stroke" cx="189.89006169761592" cy="463.09261057757107" r="12.731486486583492" fill="rgb(255,255,255)"/><g opacity="0.2"><path d=" M 199.439 463.888 C 199.439 469.162 195.164 473.437 189.89 473.437 C 184.616 473.437 180.341 469.162 180.341 463.888" fill="rgb(0,0,0)"/></g><g opacity="0.2"><path d=" M 180.341 462.297 C 180.341 457.023 184.616 452.748 189.89 452.748 C 195.164 452.748 199.439 457.023 199.439 462.297" fill="rgb(0,0,0)"/></g><ellipse vector-effect="non-scaling-stroke" cx="185.1157606628741" cy="458.7161662563308" rx="0.7957134270027382" ry="1.1935803768669189" fill="rgb(255,255,255)"/><ellipse vector-effect="non-scaling-stroke" cx="189.89006169761595" cy="457.12472916596255" rx="0.7957134270027382" ry="1.1935803768669189" fill="rgb(255,255,255)"/><ellipse vector-effect="non-scaling-stroke" cx="189.89006169761595" cy="467.4690548988121" rx="0.7957134270027382" ry="1.1935803768669189" fill="rgb(255,255,255)"/><ellipse vector-effect="non-scaling-stroke" cx="194.66437296872104" cy="461.1033167737016" rx="0.7957134270027382" ry="1.1935803768669189" fill="rgb(255,255,255)"/><ellipse vector-effect="non-scaling-stroke" cx="193.86864930535506" cy="469.856205416183" rx="0.7957134270027382" ry="1.1935803768669189" fill="rgb(255,255,255)"/><ellipse vector-effect="non-scaling-stroke" cx="184.32003699950857" cy="465.8776178084439" rx="0.7957134270027382" ry="1.1935803768669189" fill="rgb(255,255,255)"/><circle vector-effect="non-scaling-stroke" cx="126.23264973742407" cy="464.684047667939" r="12.731486486583506" fill="rgb(255,255,255)"/><g opacity="0.2"><path d=" M 135.781 465.48 C 135.781 470.753 131.506 475.028 126.233 475.028 C 120.959 475.028 116.684 470.753 116.684 465.48" fill="rgb(0,0,0)"/></g><g opacity="0.2"><path d=" M 116.684 463.888 C 116.684 458.615 120.959 454.34 126.233 454.34 C 131.506 454.34 135.781 458.615 135.781 463.888" fill="rgb(0,0,0)"/></g><ellipse vector-effect="non-scaling-stroke" cx="121.45834870268206" cy="460.3075931103365" rx="0.7957134270027382" ry="1.1935803768669189" fill="rgb(255,255,255)"/><ellipse vector-effect="non-scaling-stroke" cx="126.2326497374244" cy="458.7161662563308" rx="0.7957134270027382" ry="1.1935803768669189" fill="rgb(255,255,255)"/><ellipse vector-effect="non-scaling-stroke" cx="126.2326497374244" cy="469.0604919891803" rx="0.7957134270027382" ry="1.1935803768669189" fill="rgb(255,255,255)"/><ellipse vector-effect="non-scaling-stroke" cx="131.00696100852912" cy="462.69475386407" rx="0.7957134270027382" ry="1.1935803768669189" fill="rgb(255,255,255)"/><ellipse vector-effect="non-scaling-stroke" cx="130.21123734516357" cy="471.447642506551" rx="0.7957134270027382" ry="1.1935803768669189" fill="rgb(255,255,255)"/><ellipse vector-effect="non-scaling-stroke" cx="120.66263527567912" cy="467.4690548988121" rx="0.7957134270027382" ry="1.1935803768669189" fill="rgb(255,255,255)"/><circle vector-effect="non-scaling-stroke" cx="154.87848665496514" cy="470.25406212968375" r="12.731486486583492" fill="rgb(255,255,255)"/><g opacity="0.2"><path d=" M 164.427 471.05 C 164.427 474.461 162.607 477.613 159.653 479.319 C 156.698 481.025 153.059 481.025 150.104 479.319 C 147.15 477.613 145.33 474.461 145.33 471.05" fill="rgb(0,0,0)"/></g><g opacity="0.2"><path d=" M 145.33 469.458 C 145.33 466.047 147.15 462.895 150.104 461.189 C 153.059 459.483 156.698 459.483 159.653 461.189 C 162.607 462.895 164.427 466.047 164.427 469.458" fill="rgb(0,0,0)"/></g><ellipse vector-effect="non-scaling-stroke" cx="150.10418562022295" cy="465.8776178084439" rx="0.7957134270027382" ry="1.1935803768669189" fill="rgb(255,255,255)"/><ellipse vector-effect="non-scaling-stroke" cx="154.87848665496517" cy="464.28618071807523" rx="0.7957134270027382" ry="1.1935803768669189" fill="rgb(255,255,255)"/><ellipse vector-effect="non-scaling-stroke" cx="154.87848665496517" cy="474.6305166872879" rx="0.7957134270027382" ry="1.1935803768669189" fill="rgb(255,255,255)"/><ellipse vector-effect="non-scaling-stroke" cx="159.65279792606952" cy="468.2647683258147" rx="0.7957134270027382" ry="1.1935803768669189" fill="rgb(255,255,255)"/><ellipse vector-effect="non-scaling-stroke" cx="158.85707426270423" cy="477.0176672046591" rx="0.7957134270027382" ry="1.1935803768669189" fill="rgb(255,255,255)"/><ellipse vector-effect="non-scaling-stroke" cx="149.30846195685706" cy="473.03907959691946" rx="0.7957134270027382" ry="1.1935803768669189" fill="rgb(255,255,255)"/><circle vector-effect="non-scaling-stroke" cx="174.7714349300237" cy="483.7812620432699" r="12.731486486583492" fill="rgb(255,101,132)"/><g opacity="0.2"><path d=" M 184.32 484.577 C 184.32 489.851 180.045 494.126 174.771 494.126 C 169.498 494.126 165.223 489.851 165.223 484.577" fill="rgb(0,0,0)"/></g><g opacity="0.2"><path d=" M 165.223 482.986 C 165.223 477.712 169.498 473.437 174.771 473.437 C 180.045 473.437 184.32 477.712 184.32 482.986" fill="rgb(0,0,0)"/></g><ellipse vector-effect="non-scaling-stroke" cx="169.99712365891935" cy="479.40481772202986" rx="0.7957134270027382" ry="1.1935803768669189" fill="rgb(255,101,132)"/><ellipse vector-effect="non-scaling-stroke" cx="174.7714349300241" cy="477.8133806316617" rx="0.7957134270027382" ry="1.1935803768669189" fill="rgb(255,101,132)"/><ellipse vector-effect="non-scaling-stroke" cx="174.7714349300241" cy="488.1577166008742" rx="0.7957134270027382" ry="1.1935803768669189" fill="rgb(255,101,132)"/><ellipse vector-effect="non-scaling-stroke" cx="179.54573596476644" cy="481.7919682394009" rx="0.7957134270027382" ry="1.1935803768669189" fill="rgb(255,101,132)"/><ellipse vector-effect="non-scaling-stroke" cx="178.75002253776375" cy="490.5448671182453" rx="0.7957134270027382" ry="1.1935803768669189" fill="rgb(255,101,132)"/><ellipse vector-effect="non-scaling-stroke" cx="169.2014102319166" cy="486.56627951050575" rx="0.7957134270027382" ry="1.1935803768669189" fill="rgb(255,101,132)"/><circle vector-effect="non-scaling-stroke" cx="11.045336188494996" cy="435.24248708703306" r="3.374611492610253" fill="rgb(63,61,86)"/><path d=" M 102.774 557.733 L 21.728 535.257 L 24.832 523.724 L 105.879 546.202 L 102.774 557.733 L 102.774 557.733 Z " fill="rgb(249,168,37)"/><path d=" M 90.893 553.879 C 63.139 559.192 34.629 559.192 6.875 553.879 L 6.875 541.924 C 34.691 546.535 63.077 546.535 90.893 541.924 L 90.893 553.879 Z " fill="rgb(249,168,37)"/><path d=" M 99.53 518.016 C 71.776 523.329 43.266 523.329 15.512 518.016 L 15.512 506.061 C 43.329 510.672 71.714 510.672 99.53 506.061 L 99.53 518.016 Z " fill="rgb(249,168,37)"/><path d=" M 128.583 532.361 C 100.829 537.674 72.319 537.674 44.565 532.361 L 44.565 520.407 C 72.381 525.017 100.767 525.017 128.583 520.407 L 128.583 532.361 Z " fill="rgb(249,168,37)"/><path d=" M 135.65 545.909 C 107.896 551.222 79.386 551.222 51.632 545.909 L 51.632 533.955 C 79.448 538.565 107.834 538.565 135.65 533.955 L 135.65 545.909 Z " fill="rgb(249,168,37)"/><path d=" M 160.288 563.613 L 77.397 577.536 L 75.475 565.742 L 158.365 551.818 L 160.288 563.613 L 160.288 563.613 Z " fill="rgb(249,168,37)"/><path d=" M 147.906 565.145 C 124.925 581.711 99.024 593.791 71.563 600.752 L 66.645 589.889 C 93.866 582.267 119.655 570.239 142.988 554.283 L 147.906 565.145 Z " fill="rgb(249,168,37)"/><path d=" M 141 528.898 C 118.019 545.463 92.118 557.544 64.657 564.504 L 59.739 553.642 C 86.96 546.02 112.749 533.992 136.082 518.035 L 141 528.898 Z " fill="rgb(249,168,37)"/><path d=" M 173.301 529.62 C 150.32 546.186 124.419 558.266 96.958 565.226 L 92.04 554.364 C 119.261 546.742 145.049 534.714 168.383 518.758 L 173.301 529.62 Z " fill="rgb(249,168,37)"/><path d=" M 185.296 538.936 C 162.315 555.501 136.414 567.582 108.953 574.542 L 104.035 563.68 C 131.256 556.058 157.045 544.03 180.378 528.073 L 185.296 538.936 Z " fill="rgb(249,168,37)"/><rect x="80.877" y="515.61" width="3.979" height="3.979" transform="matrix(1,0,0,1,0,0)" fill="rgb(0,191,113)"/><rect x="92.813" y="584.837" width="3.979" height="3.979" transform="matrix(1,0,0,1,0,0)" fill="rgb(0,191,113)"/><rect x="29.155" y="515.61" width="3.979" height="3.979" transform="matrix(1,0,0,1,0,0)" fill="rgb(0,191,113)"/><rect x="121.458" y="564.944" width="3.979" height="3.979" transform="matrix(1,0,0,1,0,0)" fill="rgb(0,191,113)"/><rect x="123.845" y="541.869" width="3.979" height="3.979" transform="matrix(1,0,0,1,0,0)" fill="rgb(0,191,113)"/><rect x="56.209" y="529.137" width="5.57" height="3.183" transform="matrix(0.828,0.561,-0.561,0.828,308.15,58.421)" fill="rgb(0,191,113)"/><rect x="103.157" y="537.89" width="5.57" height="3.183" transform="matrix(0.828,0.561,-0.561,0.828,321.162,33.572)" fill="rgb(0,191,113)"/><rect x="45.865" y="553.009" width="5.57" height="3.183" transform="matrix(0.828,0.561,-0.561,0.828,319.768,68.346)" fill="rgb(0,191,113)"/><rect x="78.49" y="549.826" width="5.57" height="3.183" transform="matrix(-0.561,0.828,-0.828,-0.561,583.212,793.751)" fill="rgb(0,191,113)"/><rect x="99.974" y="555.396" width="5.57" height="3.183" transform="matrix(-0.561,0.828,-0.828,-0.561,621.368,784.67)" fill="rgb(0,191,113)"/><rect x="157.271" y="536.298" width="5.57" height="3.183" transform="matrix(-0.561,0.828,-0.828,-0.561,695.03,707.434)" fill="rgb(0,191,113)"/></g><g><path d=" M 565.308 466.588 L 534.962 453.264 C 532.74 452.289 530.148 453.299 529.172 455.521 L 523.324 468.841 C 522.348 471.063 523.359 473.655 525.581 474.631 L 530.609 476.839 L 521.847 496.796 L 542.135 505.704 L 550.898 485.747 L 555.927 487.954 C 558.149 488.93 560.741 487.92 561.716 485.698 L 567.565 472.378 C 568.54 470.156 567.53 467.564 565.308 466.588 L 565.308 466.588 Z " fill="rgb(255,255,255)"/><path d=" M 542.18 601.836 C 535.535 566.481 540.251 529.931 555.651 497.42 C 556.373 495.869 555.902 494.024 554.524 493.009 L 557.051 487.254 L 525.002 473.182 L 522.51 478.857 L 522.068 478.664 C 521.154 478.263 520.114 478.262 519.199 478.659 C 518.283 479.056 517.574 479.817 517.242 480.758 Q 497.849 535.215 450.089 564.218 C 448.258 565.329 446.836 567.003 446.037 568.99 L 401.946 678.932 C 399.915 684.032 402.264 689.827 407.273 692.074 L 479.765 723.902 C 484.871 726.095 490.795 723.82 493.121 718.772 L 540.683 614.115 C 542.419 610.27 542.941 605.986 542.18 601.836 L 542.18 601.836 Z " fill="rgb(63,61,86)"/><g opacity="0.2"><path d=" M 557.076 468.151 C 554.971 472.945 549.379 475.124 544.585 473.02 C 539.791 470.915 537.611 465.322 539.716 460.528" fill="rgb(0,0,0)"/></g><path d=" M 514.895 632.806 L 506.116 628.952 C 509.318 616.955 503.29 604.415 491.921 599.424 C 480.551 594.432 467.241 598.48 460.575 608.956 L 451.797 605.102 C 449.906 604.272 447.748 604.309 445.888 605.203 C 444.027 606.097 442.65 607.759 442.117 609.754 L 424.44 675.918 L 479.191 699.957 L 517.893 643.273 C 519.08 641.535 519.431 639.359 518.852 637.335 C 518.272 635.312 516.822 633.652 514.895 632.806 Z " fill="rgb(255,255,255)"/></g><g><path d=" M 1455.721 211.188 L 1491.082 301.39 L 1534.936 413.241 L 1440.795 452.892 L 1382.933 324.574 L 1351.581 255.05 L 1455.721 211.188 L 1455.721 211.188 Z " fill="rgb(230,230,230)"/><rect x="1413.196" y="178.294" width="14.464" height="191.647" transform="matrix(0.922,-0.388,0.388,0.922,4.971,572.846)" fill="rgb(255,255,255)"/><path d=" M 1477.383 281.253 L 1528.297 409.183 L 1442.487 445.324 L 1376.929 297.929 C 1390.707 286.957 1408.426 282.207 1425.846 284.813 C 1443.754 287.254 1461.783 285.035 1477.383 281.253 Z " fill="rgb(63,61,86)"/><rect x="1406.135" y="325.847" width="13.272" height="13.272" transform="matrix(0.922,-0.388,0.388,0.922,-18.284,574.45)" fill="rgb(230,230,230)"/><rect x="1403.939" y="297.344" width="13.272" height="13.272" transform="matrix(0.922,-0.388,0.388,0.922,-7.393,571.363)" fill="rgb(230,230,230)"/><rect x="1433.011" y="299.765" width="13.272" height="13.272" transform="matrix(0.971,0.237,-0.237,0.971,113.778,-332.768)" fill="rgb(230,230,230)"/><rect x="1464.238" y="312.129" width="13.272" height="13.272" transform="matrix(0.971,0.237,-0.237,0.971,117.603,-339.823)" fill="rgb(230,230,230)"/><rect x="1432.011" y="340.416" width="13.272" height="13.272" transform="matrix(0.971,0.237,-0.237,0.971,123.393,-331.37)" fill="rgb(230,230,230)"/><path d=" M 1448.097 272.273 C 1447.516 270.893 1448.164 269.302 1449.544 268.721 C 1450.923 268.14 1452.515 268.788 1453.096 270.167 C 1453.677 271.547 1453.029 273.138 1451.649 273.719 C 1450.27 274.3 1448.678 273.652 1448.097 272.273 Z " fill="rgb(63,61,86)"/><path d=" M 1390.259 277.015 C 1389.678 275.636 1390.326 274.044 1391.706 273.463 C 1393.085 272.882 1394.677 273.53 1395.258 274.91 C 1395.839 276.289 1395.191 277.881 1393.811 278.462 C 1392.432 279.043 1390.84 278.394 1390.259 277.015 Z " fill="rgb(63,61,86)"/><path d=" M 1425.379 241.624 C 1424.798 240.244 1425.447 238.653 1426.826 238.072 C 1428.205 237.491 1429.797 238.139 1430.378 239.518 C 1430.959 240.898 1430.311 242.49 1428.931 243.071 C 1427.552 243.652 1425.96 243.003 1425.379 241.624 Z " fill="rgb(63,61,86)"/></g></g></svg>