<?xml version="1.0" encoding="utf-8"?>
<!-- Generator: Adobe Illustrator 22.0.1, SVG Export Plug-In . SVG Version: 6.00 Build 0)  -->
<svg version="1.1" id="e6a8cd33-67c2-415a-8c26-3ee9526a2914"
	 xmlns="http://www.w3.org/2000/svg" xmlns:xlink="http://www.w3.org/1999/xlink" x="0px" y="0px" viewBox="0 0 750 750"
	 style="enable-background:new 0 0 750 750;" xml:space="preserve">
<style type="text/css">
	.st0{opacity:0.2;fill:#FFEC8A;}
	.st1{fill:#FFFFFF;}
	.st2{fill:#E6E6E6;}
	.st3{fill:#FF542A;}
	.st4{fill:#6C63FF;}
	.st5{fill:#3F3D56;}
	.st6{opacity:0.2;enable-background:new    ;}
	.st7{fill:#F9A825;}
	.st8{fill:#F40D00;}
	.st9{fill:#1A1A1A;}
</style>
<path class="st0" d="M710.7,437.5c-101.1,130.8-60.3,269.4-238.6,269.4S13.9,540.4,13.9,381.5S305.4,43,483.6,43
	S791.2,333.2,710.7,437.5z"/>
<path d="M556.5,184h-4V74.5c0-35-28.4-63.4-63.4-63.4l0,0H257c-35,0-63.4,28.4-63.4,63.4l0,0v601c0,35,28.4,63.4,63.4,63.4l0,0
	h232.1c35,0,63.4-28.4,63.4-63.4l0,0V262h4V184z"/>
<path class="st1" d="M491.6,27.6h-30.3c4.7,11.5-0.8,24.6-12.3,29.3c-2.7,1.1-5.6,1.7-8.5,1.7H307.6c-12.4,0-22.5-10.1-22.5-22.5
	c0-2.9,0.6-5.8,1.7-8.5h-28.4c-26.1,0-47.3,21.2-47.3,47.3V675c0,26.1,21.2,47.3,47.3,47.3l0,0h233.2c26.1,0,47.3-21.2,47.3-47.3
	l0,0V74.9C539,48.8,517.8,27.6,491.6,27.6z"/>
<rect x="252" y="121.3" class="st2" width="246" height="211"/>
<circle class="st3" cx="325" cy="358.3" r="18"/>
<polygon class="st1" points="334,356.8 326.5,356.8 326.5,349.3 323.5,349.3 323.5,356.8 316,356.8 316,359.8 323.5,359.8 
	323.5,367.3 326.5,367.3 326.5,359.8 334,359.8 "/>
<circle class="st3" cx="420" cy="358.3" r="18"/>
<rect x="411" y="356.8" class="st1" width="18" height="3"/>
<path class="st4" d="M384.2,147.6h-19.4c-1.4,0-2.6,1.2-2.6,2.6l0,0v8.5c0,1.4,1.2,2.6,2.6,2.6l0,0h3.2v12.8h13v-12.8h3.2
	c1.4,0,2.6-1.2,2.6-2.6l0,0v-8.5C386.8,148.8,385.6,147.6,384.2,147.6z"/>
<path class="st5" d="M403.7,225.7c-11.9-17.4-18-38.2-17.4-59.3c0-1-0.7-1.9-1.6-2.1v-3.7h-20.5v3.6h-0.3c-1.2,0-2.1,0.9-2.1,2.1
	l0,0c0,0.1,0,0.1,0,0.2c1.6,22.5-3.8,42.8-16.4,60.7c-0.7,1-1.1,2.3-1.1,3.5l2.2,69.4c0.1,3.2,2.7,5.8,6,5.8h46.4
	c3.3,0,5.9-2.6,6-5.9l0.9-67.4C405.8,230.2,405.1,227.8,403.7,225.7z"/>
<path class="st6" d="M380.2,150.4c0,3.1-2.5,5.6-5.6,5.6s-5.6-2.5-5.6-5.6l0,0"/>
<path class="st4" d="M396.3,248.8h-5.6c-1.2-8.1-8.8-13.6-16.8-12.3c-6.4,1-11.4,6-12.3,12.3H356c-2.3,0-4.1,1.9-4.1,4.1
	c0,0.2,0,0.4,0,0.6l6.1,39.7h35.1l7.4-39.6c0.4-2.3-1.1-4.4-3.3-4.8C396.9,248.8,396.6,248.8,396.3,248.8z"/>
<rect x="252" y="418.3" class="st2" width="246" height="211"/>
<circle class="st3" cx="325" cy="655.3" r="18"/>
<polygon class="st1" points="334,653.8 326.5,653.8 326.5,646.3 323.5,646.3 323.5,653.8 316,653.8 316,656.8 323.5,656.8 
	323.5,664.3 326.5,664.3 326.5,656.8 334,656.8 "/>
<circle class="st3" cx="420" cy="655.3" r="18"/>
<rect x="411" y="653.8" class="st1" width="18" height="3"/>
<path class="st1" d="M423.5,568.2h0.1c9.5,0.1,18-5.7,21.6-14.5c15.3-38.7-3.7-82.5-42.4-97.9s-82.5,3.7-97.9,42.4
	c-14.9,37.7,2.7,80.5,39.8,96.8c8.6,3.8,18.7,1.9,25.4-4.7C384.2,576.2,403.4,568.2,423.5,568.2z"/>
<circle class="st7" cx="384.7" cy="520.5" r="24.9"/>
<g>
	<g>
		<g>
			<g>
				<path class="st8" d="M285.9,80.6h-1.4c0.2,0,0.5,0,0.7,0C285.4,80.6,285.7,80.6,285.9,80.6z"/>
			</g>
			<g>
				<path class="st8" d="M285.9,80.6h-1.4c0.2,0,0.5,0,0.7,0C285.4,80.6,285.7,80.6,285.9,80.6z"/>
			</g>
		</g>
		<g>
			<path class="st8" d="M298.2,88.8L298.2,88.8c0,7.2-5.8,13-13,13c-6,0-11.1-4.1-12.6-9.7h5.1c1.3,2.9,4.1,4.9,7.5,4.9
				c4.5,0,8.2-3.7,8.2-8.2l0,0c0-1.8-0.6-3.5-1.6-4.9c-1.4-1.8-3.5-3.1-5.9-3.3c-0.2,0-0.5,0-0.7,0c-0.2,0-0.5,0-0.7,0h-31.2
				c-2.7,0-4.9-2.2-4.9-4.9h36.7c4.1,0,7.7,1.9,10.1,4.9c0.8,1,1.5,2.1,1.9,3.3C297.9,85.4,298.2,87.1,298.2,88.8z"/>
		</g>
		<g>
			<path class="st8" d="M285.9,80.6h-1.4c0.2,0,0.5,0,0.7,0C285.4,80.6,285.7,80.6,285.9,80.6z"/>
		</g>
		<path class="st8" d="M292.1,88.7h-13.8h-18.2c-2.7,0-4.9-2.2-4.9-4.9h34.9C291.3,85.1,292.1,86.9,292.1,88.7z"/>
		<path class="st8" d="M291.2,92.1c-1.2,2.1-3.4,3.6-6.1,3.6c-2.6,0-4.9-1.4-6.1-3.6H291.2z"/>
	</g>
	<g>
		<g>
			<path class="st9" d="M511.9,82.2c0,0.5-0.2,1-0.5,1.3s-0.8,0.5-1.3,0.5h-15.3c-1,0-1.9-0.8-1.9-1.9c0-0.5,0.2-1,0.5-1.3
				s0.8-0.5,1.3-0.5H510C511,80.4,511.9,81.2,511.9,82.2z"/>
		</g>
		<g>
			<path class="st9" d="M511.9,88.8c0,0.5-0.2,1-0.5,1.3s-0.8,0.5-1.3,0.5h-15.3c-1,0-1.9-0.8-1.9-1.9c0-0.5,0.2-1,0.5-1.3
				s0.8-0.5,1.3-0.5H510C511,86.9,511.9,87.7,511.9,88.8z"/>
		</g>
		<g>
			<path class="st9" d="M511.9,95.4c0,0.5-0.2,1-0.5,1.3s-0.8,0.5-1.3,0.5h-15.3c-1,0-1.9-0.8-1.9-1.9c0-0.5,0.2-1,0.5-1.3
				s0.8-0.5,1.3-0.5H510C511,93.5,511.9,94.3,511.9,95.4z"/>
		</g>
	</g>
</g>
</svg>
