<?xml version="1.0" encoding="utf-8"?>
<!-- Generator: Adobe Illustrator 22.0.1, SVG Export Plug-In . SVG Version: 6.00 Build 0)  -->
<svg version="1.1" id="e2331fcb-09a1-43a6-a836-11e9ed08f05e"
	 xmlns="http://www.w3.org/2000/svg" xmlns:xlink="http://www.w3.org/1999/xlink" x="0px" y="0px" viewBox="0 0 750 750"
	 style="enable-background:new 0 0 750 750;" xml:space="preserve">
<style type="text/css">
	.st0{opacity:0.2;fill:#FFEC8A;}
	.st1{opacity:0.3;enable-background:new    ;}
	.st2{fill:#FFFFFF;}
	.st3{fill:none;stroke:#535461;stroke-miterlimit:10;}
	.st4{opacity:0.2;fill:#F5F5F5;enable-background:new    ;}
	.st5{fill:#F5F5F5;}
	.st6{fill:#EDEDF4;}
	.st7{opacity:0.1;enable-background:new    ;}
	.st8{fill:#1A2246;}
	.st9{fill:#FE5858;}
	.st10{fill:#F1C413;}
	.st11{fill:url(#SVGID_1_);}
	.st12{fill:#965D7B;}
	.st13{fill:#FC6681;}
	.st14{fill:#F7C4A7;}
	.st15{fill:#A8A8A8;}
	.st16{opacity:0.2;enable-background:new    ;}
	.st17{fill:none;stroke:#535461;stroke-width:2;stroke-miterlimit:10;}
	.st18{fill:url(#SVGID_2_);}
	.st19{fill:#59495D;}
	.st20{fill:#F0B9BB;}
	.st21{fill:#524D64;}
	.st22{fill:#E2E8F0;}
	.st23{opacity:0.1;}
	.st24{fill:#575168;}
	.st25{fill:#F40D00;}
	.st26{enable-background:new    ;}
</style>
<path class="st0" d="M706.8,377.9c-101.3,103.9-60.4,214-238.9,214S8.9,459.7,8.9,333.5c0-126.2,291.9-268.9,470.5-268.9
	S787.4,295.1,706.8,377.9z"/>
<title>street_food</title>
<ellipse class="st1" cx="391.2" cy="589.5" rx="358.3" ry="102.3"/>
<path class="st2" d="M655,446.4c0,0,14.4,14.4,6.3,35.8c-8.1,21.4,14,57,14,57l-0.7-0.1c-29.7-5.2-44.4-39.2-27.9-64.4
	C652.8,465.5,657.8,454.5,655,446.4z"/>
<path class="st3" d="M655,446.4c0,0,8.2,17.7,0,32.1c-8.2,14.4-1.4,55,20.3,60.8"/>
<path class="st2" d="M629.2,504.8c0,0,16.5-2.6,18,12.1c1.5,14.7,31.7,16.8,31.7,16.8l-0.6,0.4c-24.9,16.4-48.8,10.4-45.1-11.3
	C634.5,514.8,634.4,506.6,629.2,504.8z"/>
<path class="st4" d="M629.2,504.8c0,0,16.5-2.6,18,12.1c1.5,14.7,31.7,16.8,31.7,16.8l-0.6,0.4c-24.9,16.4-48.8,10.4-45.1-11.3
	C634.5,514.8,634.4,506.6,629.2,504.8z"/>
<path class="st3" d="M629.2,504.8c0,0,12.8,2.8,11.8,14.4c-1,11.6,19,25.6,37.9,14.5"/>
<polygon class="st5" points="597.9,598.6 562.3,596 94.2,596 94.2,527.4 597.9,527.4 "/>
<path class="st6" d="M89.4,352.1H58.7V334c0-7,5.7-12.6,12.6-12.6l0,0h5.4c7,0,12.6,5.7,12.6,12.6l0,0
	C89.4,334,89.4,352.1,89.4,352.1z"/>
<path class="st2" d="M616.8,494.5v104.6l-34.4-0.4c0-0.7,0.1-1.5,0.1-2.2c0-37.4-30.3-67.7-67.7-67.7c-37.4,0-67.7,30.3-67.7,67.7
	l0,0c0,0.1,0,0.3,0,0.4l-34.3-0.4H235.3c0-2.5-0.1-5-0.4-7.4c-0.1-1.2-0.3-2.4-0.4-3.5c-0.4-3-1.2-5.9-2-8.9
	c-0.4-1.2-0.7-2.4-1.2-3.5c-1.1-3-2.5-5.9-3.9-8.8c-0.7-1.2-1.3-2.4-2-3.5c-1.9-3.1-4.1-6-6.5-8.8c-1-1.2-2.2-2.4-3.3-3.5
	c-26.4-26.4-69.2-26.4-95.6,0c-1.1,1.1-2.2,2.3-3.3,3.5c-2.4,2.8-4.5,5.7-6.5,8.8c-0.7,1.1-1.4,2.3-2,3.5c-1.6,2.8-2.8,5.8-3.9,8.8
	c-0.4,1.2-0.8,2.3-1.2,3.5c-0.9,2.9-1.6,5.8-2,8.8c-0.2,1.2-0.4,2.3-0.4,3.5c-0.3,2.5-0.4,5-0.4,7.4H32.4V365.2h477.3l47.4,103.2
	l58.8,25.5L616.8,494.5z"/>
<path class="st5" d="M42.8,343.3H491c10.3,0,18.6,8.3,18.6,18.6v3.3l0,0H32.3l0,0v-11.4C32.3,348,37,343.3,42.8,343.3L42.8,343.3z"
	/>
<path class="st6" d="M402.3,343.3h-109v-4.1c0-11.3,9.1-20.5,20.5-20.5h63L402.3,343.3z"/>
<path class="st7" d="M30.8,562.2h45.1c4.5,0,8.2,3.6,8.2,8.2v25.8c0,4.5-3.6,8.2-8.2,8.2H30.8c-4.5,0-8.2-3.6-8.2-8.2v-25.8
	C22.6,565.8,26.2,562.2,30.8,562.2z"/>
<polygon class="st7" points="412.4,596 361.4,596 361.4,364.8 461.7,364.8 461.7,524.8 "/>
<path class="st5" d="M29.9,564H75c4.5,0,8.2,3.6,8.2,8.2V598c0,4.5-3.6,8.2-8.2,8.2H29.9c-4.5,0-8.2-3.6-8.2-8.2v-25.8
	C21.7,567.6,25.4,564,29.9,564z"/>
<path class="st7" d="M608.6,560.4h12.8c5.7,0,10.3,4.6,10.3,10.3v28.6c0,5.7-4.6,10.3-10.3,10.3h-12.8c-5.7,0-10.3-4.6-10.3-10.3
	v-28.6C598.4,565,603,560.4,608.6,560.4z"/>
<path class="st5" d="M610.4,561.3h12.8c5.7,0,10.3,4.6,10.3,10.3v28.6c0,5.7-4.6,10.3-10.3,10.3h-12.8c-5.7,0-10.3-4.6-10.3-10.3
	v-28.6C600.1,565.9,604.7,561.3,610.4,561.3z"/>
<rect x="95.5" y="389" class="st8" width="201.2" height="109"/>
<rect x="190.9" y="398.3" class="st5" width="106.4" height="94.1"/>
<polygon class="st2" points="190.9,473.4 267.4,416.7 278,419.3 190.9,482.2 "/>
<polygon class="st2" points="190.9,450.5 232.2,406.1 251.6,410.5 190.9,467.7 "/>
<path class="st5" d="M387.8,382h50.1c6.5,0,11.9,5.4,11.9,11.9V472c0,6.5-5.4,11.9-11.9,11.9h-50.1c-6.5,0-11.9-5.4-11.9-11.9v-78.2
	C375.9,387.3,381.3,382,387.8,382z"/>
<rect x="435.7" y="492.7" class="st8" width="9.7" height="21.1"/>
<path class="st5" d="M479.7,396.5v72.8c0,2.2,1.9,4.1,4.1,4.1l0,0h44.8c2.2,0,4.1-1.9,4.1-4.1c0-0.7-0.2-1.5-0.6-2.2l-44.8-72.8
	c-1.2-1.9-3.7-2.5-5.7-1.3C480.4,393.7,479.7,395.1,479.7,396.5z"/>
<polygon class="st2" points="399.7,382 375.9,403.1 375.9,414 409.8,382 "/>
<polygon class="st2" points="375.9,426.8 375.9,439.5 432.2,382 421.2,382 "/>
<polygon class="st2" points="494.5,406.1 479.7,426.8 479.7,434.7 499.5,414 "/>
<polygon class="st2" points="506.2,426.8 479.7,449.4 479.7,455.8 512.1,434.7 "/>
<circle class="st8" cx="167.6" cy="596.5" r="47.4"/>
<ellipse transform="matrix(0.1602 -0.9871 0.9871 0.1602 -447.9966 666.3697)" class="st2" cx="167.6" cy="596.5" rx="26.4" ry="26.4"/>
<circle class="st8" cx="167.2" cy="596" r="7.1"/>
<circle class="st8" cx="514.9" cy="596.5" r="47.4"/>
<circle class="st2" cx="514.9" cy="596.5" r="26.4"/>
<circle class="st8" cx="515.3" cy="596" r="7.1"/>
<rect x="31.8" y="524" class="st7" width="329.6" height="3.5"/>
<polyline class="st7" points="610.6,527.4 459.9,527.4 461.7,524.8 461.7,524 610.6,524 "/>
<polyline class="st7" points="610.6,512.5 461.7,512.5 461.7,509 610.6,509 "/>
<polyline class="st7" points="610.6,497.5 461.7,497.5 461.7,494.1 609.6,494.1 "/>
<path class="st7" d="M136.7,536.2c-2.1,1-4.1,2.2-6,3.5H31.8v-3.5H136.7z"/>
<path class="st7" d="M361.4,536.2v3.5H204.7c-1.9-1.3-3.9-2.5-6-3.5H361.4z"/>
<path class="st7" d="M119.8,548.6c-1.1,1.1-2.2,2.3-3.3,3.5H31.8v-3.5H119.8z"/>
<path class="st7" d="M361.4,548.6v3.5H218.7c-1-1.2-2.2-2.4-3.3-3.5H361.4z"/>
<path class="st7" d="M110.1,560.8c-0.7,1.1-1.4,2.3-2,3.5H31.8v-3.5H110.1z"/>
<path class="st7" d="M361.4,560.8v3.5H227.3c-0.7-1.2-1.3-2.4-2-3.5H361.4z"/>
<path class="st7" d="M104.1,573.2c-0.4,1.2-0.8,2.3-1.2,3.5H84.6v-3.5H104.1z"/>
<path class="st7" d="M361.4,573.2v3.5h-129c-0.4-1.2-0.7-2.4-1.2-3.5H361.4z"/>
<path class="st7" d="M100.8,585.5c-0.2,1.2-0.4,2.3-0.4,3.5H84.6v-3.5H100.8z"/>
<path class="st7" d="M361.4,585.5v3.5H234.9c-0.1-1.2-0.3-2.4-0.4-3.5H361.4z"/>
<path class="st9" d="M288.5,483h-5.3v-12.6l2.2-4.4c0.1-0.2,0.4-0.4,0.7-0.2c0.1,0.1,0.1,0.1,0.2,0.2l2.2,4.4L288.5,483z"/>
<rect x="283.3" y="470.3" class="st7" width="5.3" height="0.5"/>
<path class="st10" d="M296.4,483h-5.3v-12.6l2.2-4.4c0.1-0.2,0.4-0.4,0.7-0.2c0.1,0.1,0.1,0.1,0.2,0.2l2.2,4.4L296.4,483z"/>
<rect x="291.1" y="470.3" class="st7" width="5.3" height="0.5"/>
<linearGradient id="SVGID_1_" gradientUnits="userSpaceOnUse" x1="239.8385" y1="1259.2108" x2="239.8385" y2="1200.0051" gradientTransform="matrix(1 0 0 1 -96.38 -775.11)">
	<stop  offset="0" style="stop-color:#808080;stop-opacity:0.25"/>
	<stop  offset="0.54" style="stop-color:#808080;stop-opacity:0.12"/>
	<stop  offset="1" style="stop-color:#808080;stop-opacity:0.1"/>
</linearGradient>
<path class="st11" d="M163.2,466.3c0-0.1-0.1-0.2-0.1-0.4c0.3-3.1,1.2-13.6-0.1-16.1c-1-1.9-3.7-1.9-6.9-1.3c0-0.4,0.1-0.7,0.1-1
	v-10.6c-0.1-6.8-5.7-12.1-12.4-12h-2.1c-6.8-0.1-12.3,5.3-12.4,12v10.7c0,0.3,0,0.6,0,1c-3.5,0.2-6.8,2.4-6,10.2v8.9h0.7
	c0.2,0.1,0.5,0.3,0.7,0.4l1.6,15.1h5.4l-0.1,0.7h20.9c1.7,0.1,3.4,0.2,4.8,0.2c0.9,0.1,1.7,0,2.6-0.2c2.3-0.7,2.3-5.2,2.3-5.2
	l0.7-11.1C163.2,467.2,163.3,466.8,163.2,466.3z M133,469L133,469l0.1,0.1L133,469L133,469z M153.1,470.9l0.4,5.6h-0.4V470.9z
	 M131.8,475.8l1.3-6.5h0.1l0,0l-0.6,6.6L131.8,475.8z"/>
<path class="st12" d="M140.8,425.1h3.9c6,0,10.9,4.9,10.9,10.9v12.6c0,6-4.9,10.9-10.9,10.9h-3.9c-6,0-10.9-4.9-10.9-10.9V436
	C129.8,429.9,134.7,425.1,140.8,425.1z"/>
<path class="st13" d="M136.7,449.9c0,0-14-6.7-12.5,8.7v8.8h9.5l-1.5,16.1h20.5v-16.1c0,0,8,0.7,9.5-0.7c0,0,1.5-13.9,0-16.8
	c-1.5-2.9-6.6-1.3-11.8,0.1C145.3,451.3,136.7,449.9,136.7,449.9z"/>
<path class="st14" d="M125.4,467.4l1.6,15.4h16.1c0,0,6.6-4.4,2.9-5.9c-3.7-1.5-5.9-0.7-5.9-0.7l-8-0.7l1.5-8H125.4z"/>
<path class="st7" d="M161.8,466.6l-0.7,11.8c0,0,0,4.4-2.2,5.1s-13.9-0.7-13.9-0.7s-4.4,0-3.6-3.6c0.7-3.6,4.4-4.4,5.9-4.4
	s3.6,1.5,3.6,1.5h2.2l-0.6-8.8L161.8,466.6z"/>
<path class="st14" d="M162.2,466.6l-0.7,11.8c0,0,0,4.4-2.2,5.1c-2.2,0.7-13.9-0.7-13.9-0.7s-4.4,0-3.6-3.6c0.7-3.6,4.4-4.4,5.9-4.4
	s3.6,1.5,3.6,1.5h2.2l-0.6-8.8L162.2,466.6z"/>
<path class="st7" d="M124.3,467c0,0,3,3,9.1,1.9C134.1,468.8,125.4,465.7,124.3,467z"/>
<path class="st7" d="M151.9,470c0,0,11.4-0.2,10.5-3.9c-0.9-3.6-9.7-1.6-9.7-1.6L151.9,470z"/>
<path class="st13" d="M124.3,466.8c0,0,3.6,3.6,11.2,1.5C143.1,466.2,125.4,465.5,124.3,466.8z"/>
<path class="st13" d="M151.7,469.7c0,0,11.4-0.2,10.5-3.9c-0.9-3.6-9.7-1.6-9.7-1.6L151.7,469.7z"/>
<path class="st14" d="M135.9,439.7c0,0,2.2,8,0.7,10.3c-1.5,2.2,4.6,6.8,7.3,6.7c1.6,0,7.1-3.9,6.7-6.7c-0.4-2.3-3.6-8.8-2.9-11.7
	L135.9,439.7z"/>
<path class="st7" d="M142.8,449.8c2.5,0,4.8-0.9,6.7-2.5c-1-2.9-2.5-6.6-1.9-8.6l-11.7,1.5c0,0,1.3,4.8,1.3,8
	C138.8,449.2,140.8,449.8,142.8,449.8z"/>
<circle class="st14" cx="142.8" cy="439.2" r="10.3"/>
<path class="st7" d="M136.5,443.7c-0.2-1-0.7-1.9-0.8-2.9c-0.7-3.7,1.3-7.4,4.8-8.8c0.5-0.2,1-0.3,1.6-0.2c2.2,0.4,2.5,3.7,4.5,4.5
	c0.4,0.1,0.8,0.2,1.3,0.3c1.1,0.5,1.9,1.5,2.2,2.6c0.4,1.3,0.6,2.5,0.4,3.9c-0.1,1.3-0.4,2.5-0.6,3.7s0.1,2.5,1,3.5
	c0.4,0.4,1,0.7,1.5,1c0.4,0.2,0.8,0.4,1.2,0.1c0.1-0.1,0.3-0.3,0.4-0.5c0.5-1.3,0.3-2.8,0.1-4.2c-0.1-2.2-0.1-4.3,0.1-6.5
	c0.1-1.8,0.2-3.6-0.4-5.2c-0.4-1.1-1.1-2.1-1.9-3c-0.7-0.9-1.4-1.7-2.3-2.4c-1.6-1.1-3.6-1.7-5.7-1.7c-2,0.1-3.9,0.3-5.9,0.7
	c-1.4,0.3-3,0.7-3.8,1.8c-0.4,0.7-0.7,1.3-0.9,2.1l-0.6,2.2c-0.7,2.2-1.2,4.6-1.3,7c0,1.7,0.3,5.5,2.2,6.2
	C136.4,449.1,137,445.3,136.5,443.7z"/>
<path class="st12" d="M136.5,443.3c-0.2-1-0.7-1.9-0.8-2.9c-0.7-3.7,1.3-7.4,4.8-8.8c0.5-0.2,1-0.3,1.6-0.2c2.2,0.4,2.5,3.7,4.5,4.5
	c0.4,0.1,0.8,0.2,1.3,0.3c1.1,0.5,1.9,1.5,2.2,2.6c0.4,1.3,0.6,2.5,0.4,3.9c-0.1,1.3-0.4,2.5-0.6,3.7s0.1,2.5,1,3.5
	c0.4,0.4,1,0.7,1.5,1c0.4,0.2,0.8,0.4,1.2,0.1c0.1-0.1,0.3-0.3,0.4-0.5c0.5-1.3,0.3-2.8,0.1-4.2c-0.1-2.2-0.1-4.3,0.1-6.5
	c0.1-1.8,0.2-3.6-0.4-5.2c-0.4-1.1-1.1-2.1-1.9-3c-0.7-0.9-1.4-1.7-2.3-2.4c-1.6-1.1-3.6-1.7-5.7-1.7c-2,0.1-3.9,0.3-5.9,0.7
	c-1.4,0.3-3,0.7-3.8,1.8c-0.4,0.7-0.7,1.3-0.9,2.1l-0.6,2.2c-0.7,2.2-1.2,4.6-1.3,7c0,1.7,0.3,5.5,2.2,6.2
	C136.4,448.8,137,445,136.5,443.3z"/>
<path class="st2" d="M95.1,423.7c0,0,8.8,18.4,32.1,0"/>
<path class="st2" d="M126.8,423.7c0,0,8.8,18.4,32.1,0"/>
<path class="st2" d="M158.4,423.7c0,0,8.8,18.4,32.1,0"/>
<path class="st2" d="M190.1,423.7c0,0,8.8,18.4,32.1,0"/>
<path class="st2" d="M221.7,423.7c0,0,8.8,18.4,32.1,0"/>
<path class="st2" d="M253.4,423.7c0,0,8.8,18.4,32.1,0"/>
<path class="st2" d="M285,423.7c0,0,8.8,18.4,32.1,0"/>
<path class="st2" d="M316.7,423.7c0,0,8.8,13.2,14.9,0.9"/>
<path class="st7" d="M95.1,423.7c0,0,8.8,18.4,32.1,0"/>
<path class="st7" d="M126.8,423.7c0,0,8.8,18.4,32.1,0"/>
<path class="st7" d="M158.4,423.7c0,0,8.8,18.4,32.1,0"/>
<path class="st7" d="M190.1,423.7c0,0,8.8,18.4,32.1,0"/>
<path class="st7" d="M221.7,423.7c0,0,8.8,18.4,32.1,0"/>
<path class="st7" d="M253.4,423.7c0,0,8.8,18.4,32.1,0"/>
<path class="st7" d="M285,423.7c0,0,8.8,18.4,32.1,0"/>
<path class="st7" d="M316.7,423.7c0,0,8.8,13.2,14.9,0.9"/>
<polygon class="st2" points="331.2,424.1 63.9,424.1 83.3,382 310.9,382 "/>
<polygon class="st7" points="331.2,424.1 63.9,424.1 83.3,382 310.9,382 "/>
<path class="st2" d="M63.5,423.7c0,0,8.8,18.4,32.1,0"/>
<path class="st7" d="M63.5,423.7c0,0,8.8,18.4,32.1,0"/>
<rect x="89.4" y="498" class="st6" width="216.3" height="15.8"/>
<rect x="73.6" y="482.2" class="st6" width="247" height="21.1"/>
<rect x="89.4" y="503.3" class="st7" width="216.3" height="2.7"/>
<path class="st15" d="M692.2,536.6c0,0-10.3-2.1-13.2-4.8c-2.8-2.8-15.2-7.6-16.6-4.2c-1.4,3.5-18.7,15.2-6.9,17.3
	c11.8,2.1,27.7,2.8,31.1,1.4C690.1,544.8,692.2,536.6,692.2,536.6z"/>
<path class="st16" d="M655.6,543.6c11.8,2.1,27.7,2.8,31.1,1.4c2.6-1,4.5-6.1,5.2-8.5l0.4,0.1c0,0-2.1,8.3-5.5,9.7
	c-3.4,1.3-19.3,0.7-31.1-1.4c-3.4-0.6-4.4-2-4-3.8C651.9,542.2,653.1,543.1,655.6,543.6z"/>
<path class="st17" d="M721,595.3c0,0,9.8-33.4-1.9-57.9c-5-10.3-6.5-21.9-4.2-33.1c1.1-5.3,2.7-10.5,4.7-15.5"/>
<path class="st2" d="M712.3,473.3c0,4.1,7.4,15.9,7.4,15.9s7.4-11.9,7.4-15.9c-0.4-4.1-4-7.1-8.1-6.7
	C715.5,466.9,712.7,469.7,712.3,473.3L712.3,473.3z"/>
<path class="st2" d="M700,495.9c2.2,3.4,14.9,9.4,14.9,9.4s-0.2-14-2.5-17.4c-1.9-3.6-6.4-5.1-10-3.1s-5.1,6.4-3.1,10
	C699.5,495.2,699.7,495.6,700,495.9L700,495.9z"/>
<path class="st2" d="M700.6,534.7c3.6,1.9,17.6,0.6,17.6,0.6s-7.3-12-10.9-13.8c-3.5-2.2-8.1-1-10.3,2.5s-1,8.1,2.5,10.3
	C699.8,534.3,700.2,534.5,700.6,534.7L700.6,534.7z"/>
<path class="st2" d="M707.6,563.9c3.3,2.5,17.3,3.6,17.3,3.6s-5.1-13-8.4-15.5c-3.5-2.1-8.1-1-10.2,2.5
	C704.4,557.6,704.9,561.4,707.6,563.9L707.6,563.9z"/>
<path class="st2" d="M730.5,506.1c-2.9,2.8-16.6,5.8-16.6,5.8s3.3-13.6,6.2-16.4c2.7-3.1,7.4-3.5,10.5-0.8c3.1,2.7,3.5,7.4,0.8,10.5
	C731.1,505.5,730.8,505.8,730.5,506.1z"/>
<path class="st2" d="M738.3,540.3c-3.6,1.9-17.6,0.6-17.6,0.6s7.3-12,10.9-13.8c3.8-1.6,8.1,0.3,9.7,4.1
	C742.7,534.6,741.4,538.5,738.3,540.3L738.3,540.3z"/>
<path class="st2" d="M741.2,574.7c-3.3,2.5-17.3,3.6-17.3,3.6s5.1-13,8.4-15.5c3.5-2.1,8.1-1,10.2,2.5
	C744.4,568.4,743.8,572.3,741.2,574.7L741.2,574.7z"/>
<path class="st15" d="M742.4,592.1c0,0-18-3.6-22.8-8.4c-4.8-4.8-26.3-13.2-28.7-7.2c-2.4,5.9-32.4,26.3-12,30
	c20.4,3.6,47.9,4.8,53.8,2.4C738.7,606.4,742.4,592.1,742.4,592.1z"/>
<path class="st16" d="M678.9,604.2c20.4,3.6,47.9,4.8,53.8,2.4c4.5-1.9,7.7-10.6,9-14.7l0.6,0.1c0,0-3.6,14.4-9.6,16.7
	c-6,2.4-33.5,1.2-53.8-2.4c-5.9-1-7.6-3.5-6.9-6.5C672.4,601.9,674.5,603.5,678.9,604.2z"/>
<linearGradient id="SVGID_2_" gradientUnits="userSpaceOnUse" x1="-2785.6436" y1="1449.8861" x2="-2785.6436" y2="1217.3873" gradientTransform="matrix(-1 0 0 1 -2727.5801 -775.11)">
	<stop  offset="0" style="stop-color:#808080;stop-opacity:0.25"/>
	<stop  offset="0.54" style="stop-color:#808080;stop-opacity:0.12"/>
	<stop  offset="1" style="stop-color:#808080;stop-opacity:0.1"/>
</linearGradient>
<path class="st18" d="M1,531.6c0,0-0.4,4,2,6c0,0,7.6,10,11.4,15.6c-0.2,1.6-0.4,2.5-0.4,2.5l0,0v0.2h0.1l-0.1,0.6h0.1
	c-2.2,7.7-3,18.9-3,18.9v0.4c0,0.2,0,0.4,0,0.4S12,589.1,12,599c0,4.8-0.2,8.9-0.9,10.2c-0.8,1.6-1.1,9.7-1.1,19
	c0,13.3,0.6,29.4,1.1,31.3c0.1,0.4,0.3,0.7,0.6,1c-0.7,3-2.2,7.1-4.2,7.9c-1.5,0.5-2.5,1.9-2.6,3.4c0,0,0,0,0,0.1c0,0.1,0,0.1,0,0.2
	v0.1c0,0.1,0,0.1,0,0.2v0.1c0,0.1,0,0.1,0.1,0.2v0.1c0,0.1,0.1,0.1,0.1,0.2v0.1c0,0.1,0.1,0.1,0.1,0.2v0.1c0.1,0.1,0.2,0.4,0.4,0.5
	l0,0l0.2,0.1l0.1,0.1l0.2,0.1l0.1,0.1l0.2,0.1l0.1,0.1l0.2,0.1l0.1,0.1l0.2,0.1l0.1,0.1l0.2,0.1h0.1h0.2H8h0.5
	c5.3,0,8.1-1.2,9.7-3.6l3.3-0.8v-0.1l0,0v-0.1v-0.1V670v-0.1v-0.2v-0.1v-0.1v-0.1l0,0l0.1-0.4l0,0l0.1-0.2l0,0
	c0.1-0.2,0.1-0.4,0.1-0.7v-0.1c0.1-0.3,0.1-0.5,0.1-0.8l0,0c0.1-0.3,0.1-0.6,0.1-0.9l0,0c0-0.3,0.1-0.6,0.1-1v-0.1v-0.3l0,0
	c0-0.2,0-0.4,0.1-0.6v-0.1c0-0.1,0-0.2,0-0.3v-0.1c0-0.2,0-0.4,0-0.6h0.3l2.8-45l10.2-40.2l4.9,33.7c0,1.1,0,3.3,0,6.2
	c0,9.6,0.2,27.3,1.6,29.6c0.7,1,0.9,2.9,0.9,5.1c-0.1,3.3-0.4,6.5-0.9,9.8h0.1c-0.1,0.5-0.1,0.8-0.1,0.8h0.4
	c-0.3,2.6-0.4,5.5-0.4,6.8l0,0v0.2c0,0.4,0,0.6,0,0.6s6.9,0.8,8.1,0.8c6.8,0,15.5,3.2,18.3,1.2l0.2-0.2l0.1-0.1l0.1-0.1l0.1-0.1
	l0.1-0.1l0,0c0-0.1,0.1-0.1,0.1-0.1l0,0c0-0.1,0-0.1,0.1-0.1l0,0c0-0.1,0-0.1,0-0.1l0,0c0-0.1,0-0.1,0-0.1l0,0
	c-0.4-1.4-4.4-2.7-7.3-3.9c-2.5-1-4.5-5.2-5.7-7.8c0.4-0.4,0.5-1,0.4-1.6c0.1-0.4,0.1-0.7-0.1-1c-1.5-4.5-1.9-42.1-2-47.9l3.6-26.1
	c0.4-1.6,0.5-3.1,0.4-4.8c0.1-5.9-1.2-16.1-1.9-21.8h1l-0.1-0.8h0.1l-1.6-9.7v-12.6l2-22.1l2.5,1.6c0.2,0,0.5-0.3,1-0.7
	c5.2,2.3,11.9,5.2,15.7,6.8c6.9,2.8,7.4,0,7.4,0L98.2,493c0,0,23.7-9.7,15.9-13.7s-18.7,4-20.4,8s-11,16.9-13,19.3
	c-2,2.4-3.3,0.8-5.3-1.2c-1.7-1.5-3.6-2.9-5.4-4.2l0.1-0.2c-0.8-0.4-1.6-0.9-2.2-1.6c-3.2-3.6-10.2-10.9-14.1-11.2
	c-4.9-0.4-11.2-5.3-12.1-5.9c-0.1-1.2-0.1-2.4,0.1-3.6h0.1c0-0.1,0-0.3,0.1-0.4c5.8-1.2,9.9-6.2,10-12.2c0-0.3,0-0.6-0.1-1
	c0.1,0,0.1,0,0.2,0c0.5-0.1,0.8-5.1,0.8-5.8c0-0.4,0.1-0.9,0.3-1.3c0.1-0.4,0.4-0.7,0.6-1c0.1-0.3,0.1-0.7,0.1-1
	c0-0.8-0.2-1.6-0.6-2.3c-1.1-2.8-2.6-5.6-4.4-8c-0.2-0.4-0.6-0.7-1-0.9c-0.4-0.1-1-0.2-1.4-0.1c-2.2,0-4.3-1-6.4-1.8s-4.6-1-6.5,0.2
	c-1.9,1.3-2.5,3.8-4.5,4.8c-0.5,0.3-1.1,0.4-1.6,0.7c-0.6,0.5-1,1.1-1.3,1.8c-1.1,1.3-2,2.7-2.6,4.3c-0.3,1.1-0.4,2.2-0.4,3.3
	c0,0.4,0,0.7,0,1.1c0,2.2,0.2,4.8,2.1,6.1c0.4,0.3,0.7,0.7,1,1.1c0.3,0.5,0.5,1.2,0.5,1.8c0.1,1.3,0.6,2.5,0.7,3.7
	c0,0.4,0.1,1,0.4,1.3c0.3,0.4,0.8,0.5,1.3,0.2l0,0l0.1-0.3c0.1,0.2,0.3,0.4,0.4,0.6c-0.4,2.7-1.2,5.6-2.4,7.4h-0.3
	c-1.9,0-3.8,0.7-5.4,1.8c-4.6,3.3-14,5.9-14,5.9c-0.7,0.7-1.2,1.6-1.3,2.5c-1.7,4-3.1,8.1-4.2,12.3l0,0c-0.8,3-1.3,5.6-1.2,6.5v0.1
	h0.1l0,0l-0.1,0.4l1.4,0.4C1.2,516.9-0.5,527.7,1,531.6z M9.9,529.6c1-2.7,2-5.4,2.8-8.1c0.9,2.8,1.8,4.8,2.5,5.7s1,3,1,5.9
	c0.1,2.9-0.3,6.3-0.6,9.6C13.4,538.5,11.5,534.1,9.9,529.6L9.9,529.6z"/>
<path class="st19" d="M56.1,655.9c0,0,2.8,8.3,6.3,9.9c3.6,1.6,9.1,3.2,6.3,5.1s-11.2-1.2-17.8-1.2c-1.2,0-7.9-0.8-7.9-0.8
	s0-10.7,1.6-12.6C46.1,654.3,56.1,655.9,56.1,655.9z"/>
<path class="st19" d="M13.7,655.9c0,0-1.6,9.5-4.8,10.7s-3.9,6.3,1.2,6.3s8-1.2,9.5-3.6l3.2-0.8c0,0,2-9.1,0-11.5L13.7,655.9z"/>
<path class="st19" d="M56.1,655.9c0,0,2.8,8.3,6.3,9.9c3.6,1.6,9.1,3.2,6.3,5.1s-11.2-1.2-17.8-1.2c-1.2,0-7.9-0.8-7.9-0.8
	s0-10.7,1.6-12.6C46.1,654.3,56.1,655.9,56.1,655.9z"/>
<path class="st19" d="M13.7,655.9c0,0-1.6,9.5-4.8,10.7s-3.9,6.3,1.2,6.3s8-1.2,9.5-3.6l3.2-0.8c0,0,2-9.1,0-11.5L13.7,655.9z"/>
<path class="st20" d="M65.9,499c0,0,7.5,5.1,9.5,7.1c2,2,3.2,3.6,5.1,1.2c2-2.4,11.1-15,12.6-19c1.6-4,12.3-11.9,19.8-7.9
	c7.5,4-15.5,13.5-15.5,13.5l-13,25.7c0,0-0.4,2.8-7.1,0c-6.8-2.8-22.6-9.9-22.6-9.9L65.9,499z"/>
<path class="st7" d="M56.8,553.3c0,0,3.6,24.5,2,29.3l-3.6,25.7c0,0,0.4,43.2,2,48c1.6,4.8-14.3,5.1-14.3,5.1s2-12.3,0-15.5
	c-2-3.2-1.6-35.3-1.6-35.3l-4.8-33.2l-9.9,39.6l-2.8,44.4c0,0-10.7-0.4-11.5-3.6s-2-44.8,0-48.7s0-33.2,0-33.2s1.6-22.6,6.3-25.4
	C23.6,547.8,56.8,553.3,56.8,553.3z"/>
<path class="st21" d="M56.8,552.5c0,0,3.6,24.5,2,29.3l-3.6,25.7c0,0,0.4,43.2,2,48c1.6,4.8-14.3,5.1-14.3,5.1s2-12.3,0-15.5
	c-2-3.2-1.6-35.3-1.6-35.3l-4.8-33.2l-9.9,39.6l-2.8,44.4c0,0-10.7-0.4-11.5-3.6c-0.7-3.2-2-44.8,0-48.7s0-33.2,0-33.2
	s1.6-22.6,6.3-25.4C23.6,546.9,56.8,552.5,56.8,552.5z"/>
<path class="st20" d="M31.1,468.1c0,0-0.8,19-7.5,15.5l5.9,17.8l13.5-0.8l7.9-10.7l-5.9-3.6c0,0-4.4,1.6-1.2-13.1L31.1,468.1z"/>
<path class="st7" d="M42.5,483.9c0,0,6.8,5.6,11.9,5.9c3.9,0.3,10.6,7.5,13.8,11.1c0.6,0.7,1.3,1.2,2.1,1.6c0,0-7.9,11.1-9.1,11.1
	l-2.4-1.6l-2,21.8V547l1.6,9.5c0,0-25,0.4-27.4-1.6s-15.8,1.6-15.8,1.6s3.9-25.7,1.2-28.9c-2.8-3.2-7.5-25.4-7.5-25.4
	s-3.2-9.1,0-11.9c0,0,9.1-2.6,13.6-5.8c1.5-1.1,3.3-1.7,5.3-1.8h0.3c0,0,0.3,5.9,6.2,7.1S43.9,488.9,42.5,483.9z"/>
<path class="st22" d="M42.5,483.2c0,0,6.8,5.6,11.9,5.9c3.9,0.3,10.6,7.5,13.8,11.1c0.6,0.7,1.3,1.2,2.1,1.6c0,0-7.9,11.1-9.1,11.1
	l-2.4-1.6l-2,21.8v13.1l1.6,9.5c0,0-25,0.4-27.4-1.6s-15.8,1.6-15.8,1.6s3.9-25.7,1.2-28.9s-7.5-25.4-7.5-25.4s-3.2-9.1,0-11.9
	c0,0,9.1-2.6,13.6-5.8c1.5-1.1,3.3-1.7,5.3-1.8h0.3c0,0,0.3,5.9,6.2,7.1S43.9,488.2,42.5,483.2z"/>
<path class="st22" d="M15.6,512.5c0,0-11.9-1.6-13.1-1.6s3.9-19.4,6.8-21.4s6.3,7.1,6.3,7.1V512.5z"/>
<g class="st23">
	<path d="M43.9,484.5c0.4,3.6-2,5.4-6.2,5.2c3.8-0.2,5.8-2.4,4.8-6.2C42.5,483.3,43.1,483.8,43.9,484.5z"/>
	<path d="M60,511.5l1.8,1.2c-0.1,0.1-0.4,0.3-0.6,0.4l-1.3-0.8L60,511.5z"/>
	<path d="M8.9,501.6c0,0,5.9,22.2,8.7,25.4c2.6,3-0.7,25.7-1.1,28.6l-1.3,0.3c0,0,3.9-25.7,1.2-28.9C13.7,523.8,8.9,501.6,8.9,501.6
		z"/>
	<path d="M32.3,554.3c1.6,1.4,14.3,1.6,21.8,1.6c-7.3,0-21.2-0.1-23-1.6c-0.7-0.4-1.5-0.6-2.3-0.6C30.4,553.6,31.7,553.8,32.3,554.3
		z"/>
</g>
<path class="st20" d="M4.5,507.4c0,0-3.9,19-2,24.5c0,0-0.4,3.9,2,5.9c0,0,13.1,17.4,13.1,19s3.9,9.1,10.7,2.8c0,0,3.2-4.4-3.9-8
	c-7.1-3.6-13.1-21.8-13.1-21.8s5.9-14.7,3.6-19.4C12.4,505.7,4.5,507.4,4.5,507.4z"/>
<polygon class="st7" points="17,514.7 2.4,511.1 3.6,504.5 9.9,503.6 18.2,506.3 "/>
<polygon class="st22" points="17,514.3 2.4,510.7 3.6,504.2 9.9,503.2 18.2,506 "/>
<path class="st7" d="M31.1,468.5l12.6,5.1c-0.4,2-0.8,4-1,6.1c-4.7,1-9.5-0.8-12.4-4.7C30.7,472.9,30.9,470.7,31.1,468.5z"/>
<circle class="st20" cx="40.1" cy="467.4" r="12.3"/>
<path class="st7" d="M53.5,460.7c0-0.4,0.1-0.9,0.3-1.3c0.1-0.4,0.4-0.7,0.6-1c0.4-0.9,0-1.9-0.4-2.9c-1.1-2.8-2.5-5.4-4.2-8
	c-0.2-0.4-0.6-0.7-1-0.9c-0.4-0.1-0.9-0.2-1.4-0.1c-2.2,0-4.2-1-6.2-1.8s-4.5-1-6.2,0.2s-2.5,3.7-4.4,4.7c-0.5,0.3-1.1,0.4-1.6,0.7
	c-0.7,0.4-1.3,1-1.7,1.7c-2.2,2.2-3.3,5.2-2.9,8.3c0,2.2,0.2,4.7,2,6c0.4,0.3,0.7,0.7,1,1.1c0.3,0.5,0.5,1.1,0.4,1.8
	c0.1,1.2,0.6,2.5,0.7,3.6c0,0.4,0.1,0.9,0.4,1.3c0.3,0.4,0.8,0.5,1.2,0.2l0,0l1.3-5.1c0.1-1,0.6-2,1.2-2.8c0.9-1.1,2.5-1.7,3-3
	c0.4-1,0.1-2.2,0.8-3c0.3-0.2,0.7-0.4,1.1-0.5c3.6-0.8,7.3-1,10.9-0.4c0.4,0.1,0.7,0.1,1.1,0.4c0.6,0.4,1,1.1,1.2,1.9
	c0.3,0.7,1.2,4.9,2.2,4.6C53.2,466.2,53.5,461.4,53.5,460.7z"/>
<path class="st24" d="M53.5,460.4c0-0.4,0.1-0.9,0.3-1.3c0.1-0.4,0.4-0.7,0.6-1c0.4-0.9,0-1.9-0.4-2.9c-1.1-2.8-2.5-5.4-4.2-8
	c-0.2-0.4-0.6-0.7-1-0.9c-0.4-0.1-0.9-0.2-1.4-0.1c-2.2,0-4.2-1-6.2-1.8s-4.5-1-6.2,0.2s-2.5,3.7-4.4,4.7c-0.5,0.3-1.1,0.4-1.6,0.7
	c-0.7,0.4-1.3,1-1.7,1.7c-2.2,2.2-3.2,5.1-2.9,8.2c0,2.2,0.2,4.7,2,6c0.4,0.3,0.7,0.7,1,1.1c0.4,0.5,0.5,1.2,0.5,1.9
	c0.1,1.2,0.6,2.5,0.7,3.6c0,0.4,0.1,0.9,0.4,1.3c0.3,0.4,0.8,0.5,1.2,0.2l0,0l1.3-5.1c0.1-1,0.6-2,1.2-2.8c0.9-1.1,2.5-1.7,3-3
	c0.4-1,0.1-2.2,0.8-3c0.3-0.2,0.7-0.4,1.1-0.5c3.6-0.8,7.3-1,10.9-0.4c0.4,0.1,0.7,0.1,1.1,0.4c0.6,0.4,1,1.1,1.2,1.9
	c0.3,0.7,1.2,4.9,2.2,4.6C53.2,465.9,53.5,461,53.5,460.4z"/>
<ellipse class="st20" cx="32" cy="466.8" rx="1.2" ry="2.8"/>
<path class="st7" d="M50.9,669c6.6,0,15,3.2,17.8,1.2c0.3-0.1,0.5-0.4,0.7-0.7c0.2,0.4,0.1,1-0.7,1.5c-2.8,2-11.2-1.2-17.8-1.2
	c-1.2,0-7.9-0.8-7.9-0.8s0-0.3,0-0.8C43.1,668.2,49.7,669,50.9,669z"/>
<path class="st7" d="M10.1,672.2c5.1,0,8-1.2,9.5-3.6l3.2-0.8c0.5-2.3,0.7-4.7,0.9-7.1c0,2.7-0.3,5.3-0.9,7.9l-3.2,0.8
	c-1.6,2.4-4.4,3.6-9.5,3.6c-2.9,0-3.9-1.6-3.7-3.2C6.6,671.1,7.6,672.2,10.1,672.2z"/>
<rect x="17.4" y="557.1" transform="matrix(0.9451 -0.3269 0.3269 0.9451 -181.6589 38.7753)" class="st21" width="14.3" height="5.6"/>
<rect x="17.4" y="557.1" transform="matrix(0.9451 -0.3269 0.3269 0.9451 -181.6589 38.7753)" class="st7" width="14.3" height="5.6"/>
<g>
	<g>
		<g>
			<g>
				<path class="st25" d="M202.2,391.3h-0.9c0.1,0,0.3,0,0.4,0C201.9,391.3,202,391.3,202.2,391.3z"/>
			</g>
			<g>
				<path class="st25" d="M202.2,391.3h-0.9c0.1,0,0.3,0,0.4,0C201.9,391.3,202,391.3,202.2,391.3z"/>
			</g>
		</g>
		<g>
			<path class="st25" d="M210.3,396.7L210.3,396.7c0,4.8-3.8,8.6-8.6,8.6c-3.9,0-7.3-2.7-8.3-6.3h3.3c0.8,1.9,2.8,3.2,4.9,3.2
				c3,0,5.4-2.4,5.4-5.4l0,0c0-1.2-0.4-2.3-1-3.2c-0.9-1.2-2.3-2-3.9-2.2c-0.1,0-0.3,0-0.4,0c-0.1,0-0.3,0-0.4,0h-20.5
				c-1.8,0-3.2-1.4-3.2-3.2h24.1c2.7,0,5.1,1.3,6.6,3.2c0.5,0.7,1,1.4,1.3,2.2C210.1,394.5,210.3,395.6,210.3,396.7z"/>
		</g>
		<g>
			<path class="st25" d="M202.2,391.3h-0.9c0.1,0,0.3,0,0.4,0C201.9,391.3,202,391.3,202.2,391.3z"/>
		</g>
		<path class="st25" d="M206.3,396.6h-9.1h-12c-1.8,0-3.2-1.4-3.2-3.2h22.8C205.8,394.3,206.3,395.4,206.3,396.6z"/>
		<path class="st25" d="M205.8,398.9c-0.7,1.4-2.2,2.3-3.9,2.3s-3.2-1-3.9-2.3H205.8z"/>
	</g>
	<g class="st26">
		<path class="st25" d="M168.6,411.5v1.6h2.5c0.4,0,0.7,0.4,0.7,0.7c0,0.3-0.4,0.6-0.7,0.6h-2.5v2.1c0,0.4-0.2,0.6-0.6,0.6
			c-0.4,0-0.7-0.3-0.7-0.6v-5.7c0-0.4,0.3-0.6,0.7-0.6h3.5c0.4,0,0.7,0.2,0.7,0.6c0,0.3-0.2,0.7-0.7,0.7L168.6,411.5L168.6,411.5z"
			/>
		<path class="st25" d="M173.2,417.2c-0.3-0.1-0.5-0.5-0.3-1l2.9-5.7c0.3-0.5,1-0.5,1.3,0l2.8,5.7c0.4,0.8-0.8,1.4-1.2,0.6l-0.4-0.9
			h-3.7l-0.4,0.9C173.9,417.2,173.6,417.2,173.2,417.2z M177.5,414.6l-1.1-2.5l-1.3,2.5H177.5z"/>
		<path class="st25" d="M180.6,411.7c0.2-1.9,3.2-2.3,4.5-1.3c0.7,0.5-0.1,1.4-0.7,1c-0.7-0.4-2.5-0.7-2.7,0.4
			c-0.3,1.6,4.1,0.7,4,3.3c-0.1,2.5-3.8,2.6-5.1,1.5c-0.3-0.3-0.3-0.7-0.1-1c0.2-0.2,0.5-0.4,0.9-0.1c0.8,0.6,3,1,3.1-0.4
			C184.5,413.7,180.3,414.6,180.6,411.7z"/>
		<path class="st25" d="M189,411.5h-1.8c-0.9,0-0.9-1.3,0-1.3h4.8c0.9,0,0.9,1.3,0,1.3h-1.6v5.1c0,0.9-1.3,0.9-1.3,0V411.5
			L189,411.5z"/>
		<path class="st25" d="M200.6,414.8l1.5-4.2c0.3-0.8,1.5-0.4,1.2,0.4l-2,5.4c-0.1,0.6-0.4,0.7-0.7,0.7c-0.4,0-0.4-0.2-0.7-0.6
			l-1.8-3.9l-1.6,3.9c-0.1,0.4-0.4,0.7-0.7,0.7s-0.5-0.2-0.7-0.7l-1.9-5.5c-0.3-0.9,1-1.3,1.3-0.4l1.5,4.2l1.8-4.2
			c0.2-0.6,0.9-0.7,1.1,0L200.6,414.8z"/>
		<path class="st25" d="M204.4,410.8c0-0.8,1.3-0.8,1.3,0v5.7c0,0.8-1.3,0.8-1.3,0V410.8z"/>
		<path class="st25" d="M207.2,410.9c0-0.4,0.1-0.7,0.6-0.7c0.4,0,0.4,0.1,0.7,0.4l3.3,4.2v-3.9c0-0.3,0.3-0.7,0.7-0.7
			s0.7,0.4,0.7,0.7v5.7c0,0.4-0.3,0.6-0.5,0.7c-0.4,0-0.5-0.1-0.8-0.4l-3.3-4.2v3.9c0,0.4-0.3,0.7-0.7,0.7c-0.4,0-0.7-0.2-0.7-0.7
			L207.2,410.9L207.2,410.9z"/>
		<path class="st25" d="M220.5,416.4c-0.7,0.6-1.6,0.8-2.5,0.8c-2.1,0-3.6-1.2-3.6-3.6c0-2,1.6-3.6,3.7-3.6c0.8,0,1.6,0.3,2.3,0.9
			c0.6,0.6-0.3,1.5-0.9,1c-0.4-0.4-0.9-0.7-1.4-0.7c-1.2,0-2.4,1-2.4,2.4c0,1.5,1,2.4,2.3,2.4c0.6,0,1.1-0.1,1.5-0.4v-1.3h-1.5
			c-0.9,0-0.8-1.2,0-1.2h2c0.4,0,0.7,0.3,0.7,0.6v2.2C220.7,416,220.6,416.2,220.5,416.4z"/>
	</g>
</g>
</svg>
