<?xml version="1.0" encoding="utf-8"?>
<!-- Generator: Adobe Illustrator 22.0.1, SVG Export Plug-In . SVG Version: 6.00 Build 0)  -->
<svg version="1.1" id="_x37_6d98801-3a87-461e-b488-021b663cdcb4"
	 xmlns="http://www.w3.org/2000/svg" xmlns:xlink="http://www.w3.org/1999/xlink" x="0px" y="0px" viewBox="0 0 750 750"
	 style="enable-background:new 0 0 750 750;" xml:space="preserve">
<style type="text/css">
	.st0{opacity:0.2;fill:#FFA994;}
	.st1{opacity:0.1;fill:#FFFFFF;enable-background:new    ;}
	.st2{fill:#FFFFFF;}
	.st3{fill:none;stroke:#565987;stroke-miterlimit:10;}
	.st4{opacity:0.1;enable-background:new    ;}
	.st5{fill:#FFD037;}
	.st6{fill:#A8A8A8;}
	.st7{opacity:0.2;enable-background:new    ;}
	.st8{fill:#EFB7B9;}
	.st9{opacity:5.000000e-02;enable-background:new    ;}
	.st10{fill:none;}
	.st11{fill:#65617D;}
	.st12{fill:#DCE0ED;}
	.st13{fill:#F8F8F8;}
	.st14{opacity:0.1;fill:#F6F6F6;enable-background:new    ;}
	.st15{fill:#444053;}
	.st16{fill:#A36468;}
	.st17{fill:#965D7B;}
	.st18{opacity:0.1;}
	.st19{fill:#F40D00;}
	.st20{opacity:0.3;fill:#FFFFFF;enable-background:new    ;}
	.st21{enable-background:new    ;}
</style>
<path class="st0" d="M724.2,332c99.1,255-109.7,365.7-293.1,402.2c-168.6,33.6-366.2,26-415.4-148.6C-39,391.4,85.7,121.8,255,34.3
	C461.4-72.3,632,95,724.2,332z"/>
<title>on the way</title>
<ellipse class="st1" cx="20.9" cy="611.7" rx="18.3" ry="2.5"/>
<ellipse class="st1" cx="90.9" cy="631.8" rx="18.3" ry="2.5"/>
<ellipse class="st1" cx="173.4" cy="622.2" rx="18.3" ry="2.5"/>
<ellipse class="st1" cx="62.9" cy="652" rx="13" ry="1.8"/>
<ellipse class="st1" cx="135.6" cy="650.2" rx="13" ry="1.8"/>
<path class="st2" d="M91.4,631.2c0,0-25.6-84,4-117.7c22.2-25.2,47.4-22.2,58.6-19c5.9,1.6,10.8,5.7,13.5,11.2
	c4,8.5,3.3,22.3-24.6,38.4c-46.6,27-49.5,64-49.5,64L91.4,631.2z"/>
<path class="st3" d="M150,506.4c0,0-75.6,23.6-58.6,124.9"/>
<path class="st3" d="M105.9,514.9c0,0,10.4,7,7.1,17.6"/>
<path class="st3" d="M142.4,521.1c0,0-6.4-6.4-14.1-2.9"/>
<path class="st3" d="M112.5,553.7c0,0-11.2-5.7-14.1,1.4"/>
<path class="st3" d="M84.8,565.4c0,0,8.4-0.6,8.6,3.3"/>
<path class="st2" d="M90.3,631.9c0,0,30-61.1,38.3-59.8c3.9,0.6,5.7,4.5,6.5,8.4c1,5,0.4,10.3-1.6,14.9
	C129.2,605.1,117.8,623.8,90.3,631.9z"/>
<path class="st3" d="M128.4,583.8c0,0-31.5,45.7-37.6,47.7"/>
<line class="st3" x1="131.3" y1="590.8" x2="123.9" y2="590.8"/>
<line class="st3" x1="122.4" y1="607.6" x2="110.9" y2="608"/>
<line class="st3" x1="115.4" y1="594.2" x2="116.7" y2="600.2"/>
<line class="st3" x1="103.2" y1="612.5" x2="103.4" y2="618"/>
<path class="st2" d="M91.2,631.9c0,0-30-61.1-38.3-59.8c-3.9,0.6-5.7,4.5-6.5,8.4c-1,5-0.4,10.2,1.6,14.9
	C52.3,605.1,63.7,623.8,91.2,631.9z"/>
<path class="st3" d="M53.1,583.8c0,0,31.5,45.7,37.6,47.7"/>
<line class="st3" x1="50.2" y1="577.9" x2="57.6" y2="577.9"/>
<line class="st3" x1="59.1" y1="607.6" x2="70.6" y2="608"/>
<line class="st3" x1="66.1" y1="581.3" x2="64.8" y2="587.2"/>
<line class="st3" x1="78.3" y1="612.5" x2="78.1" y2="618"/>
<path class="st2" d="M142.8,646.1c0.8-0.6,1.4-1.6,1.7-2.5c0.3-1.1-0.2-2.1-1.2-2.6c-1.1-0.4-2.3,0.4-3.2,1.1
	c-0.9,0.8-1.9,1.6-3,1.5c1.2-1.1,1.8-2.8,1.4-4.4c-0.1-0.4-0.2-0.6-0.4-0.9c-0.6-0.6-1.7-0.4-2.5,0.1c-2.3,1.6-3,4.8-3,7.6
	c-0.1-1.1-0.1-2.1-0.1-3.1c0-1.1-0.3-2.2-1.2-2.8c-0.6-0.3-1.1-0.4-1.8-0.4c-1.1,0-2.2,0.1-2.9,0.8c-0.9,0.9-0.6,2.5,0.1,3.6
	c0.8,1,1.9,1.8,3,2.4c0.8,0.5,1.6,1.2,2.1,2.1c0.1,0.1,0.1,0.2,0.1,0.4h6.5C140.1,648.2,141.6,647.3,142.8,646.1z"/>
<path class="st2" d="M28.3,608.6c0.8-0.6,1.4-1.6,1.7-2.5c0.3-1.1-0.2-2.1-1.2-2.6c-1.1-0.4-2.3,0.4-3.2,1.1s-1.9,1.6-3,1.5
	c1.2-1.1,1.8-2.8,1.4-4.4c-0.1-0.4-0.2-0.6-0.4-0.9c-0.6-0.6-1.7-0.4-2.4,0.1c-2.3,1.6-3,4.8-3,7.6c-0.1-1.1-0.1-2.1-0.1-3.1
	c0-1.1-0.3-2.2-1.2-2.8c-0.6-0.3-1.2-0.4-1.8-0.4c-1.1-0.1-2.2,0.1-2.9,0.8c-0.9,0.9-0.6,2.5,0.1,3.5c0.8,1,1.9,1.8,3,2.4
	c0.8,0.5,1.6,1.2,2.1,2.1c0.1,0.1,0.1,0.2,0.1,0.4h6.5C25.7,610.6,27.1,609.7,28.3,608.6z"/>
<path class="st2" d="M66.4,633.2c0.8-0.6,1.4-1.6,1.7-2.5c0.3-1.1-0.2-2.1-1.2-2.6c-1.1-0.4-2.3,0.4-3.2,1.1c-0.9,0.8-1.9,1.6-3,1.5
	c1.2-1.1,1.8-2.8,1.4-4.4c-0.1-0.4-0.2-0.6-0.4-0.9c-0.6-0.6-1.7-0.4-2.4,0.1c-2.3,1.6-3,4.8-3,7.6c-0.1-1.1-0.1-2.1-0.1-3.1
	c0-1.1-0.3-2.2-1.2-2.8c-0.6-0.3-1.2-0.4-1.8-0.4c-1.1,0-2.2,0.1-2.9,0.8c-0.9,0.9-0.6,2.5,0.1,3.6c0.8,1,1.9,1.8,3,2.4
	c0.8,0.5,1.6,1.2,2.1,2.1c0.1,0.1,0.1,0.2,0.1,0.4h6.5C63.8,635.2,65.2,634.3,66.4,633.2z"/>
<path class="st2" d="M174.6,596.4c0,0,2.5,3.2-1.1,8.1c-3.6,4.9-6.5,8.9-5.3,12c0,0,5.4-9,9.8-9.1
	C182.3,607.1,179.4,601.8,174.6,596.4z"/>
<path class="st4" d="M174.6,596.4c0.2,0.3,0.4,0.6,0.5,1c4.3,5,6.6,9.8,2.5,9.8c-3.8,0.1-8.4,7-9.6,8.7c0,0.1,0.1,0.3,0.1,0.4
	c0,0,5.4-9,9.8-9.1C182.3,607.1,179.4,601.8,174.6,596.4z"/>
<path class="st5" d="M179.2,600.5c0,1.1-0.1,2.1-0.3,2.1s-0.3-0.9-0.3-2.1s0.1-0.6,0.4-0.6C179.2,600,179.2,599.4,179.2,600.5z"/>
<path class="st5" d="M180.7,601.8c-1,0.6-1.8,0.8-1.9,0.7c-0.1-0.1,0.6-0.7,1.6-1.2c1-0.5,0.6-0.1,0.7,0
	C181.3,601.5,181.7,601.3,180.7,601.8z"/>
<path class="st2" d="M161.7,596.4c0,0-2.5,3.2,1.1,8.1c3.6,4.9,6.5,8.9,5.3,12c0,0-5.4-9-9.8-9.1
	C153.9,607.2,156.9,601.8,161.7,596.4z"/>
<path class="st4" d="M161.7,596.4c-0.2,0.3-0.4,0.6-0.5,1c-4.3,5-6.6,9.8-2.5,9.8c3.8,0.1,8.4,7,9.6,8.7c-0.1,0.1-0.1,0.3-0.1,0.4
	c0,0-5.4-9-9.8-9.1C153.9,607.1,156.9,601.8,161.7,596.4z"/>
<path class="st5" d="M157.1,600.5c0,1.1,0.1,2.1,0.3,2.1c0.1,0,0.3-0.9,0.3-2.1s-0.1-0.6-0.3-0.6C157.3,600,157.1,599.4,157.1,600.5
	z"/>
<path class="st5" d="M155.6,601.8c1,0.6,1.8,0.8,1.9,0.7c0.1-0.1-0.7-0.7-1.6-1.2c-0.9-0.5-0.6-0.1-0.7,0
	C155.1,601.5,154.6,601.3,155.6,601.8z"/>
<path class="st6" d="M157.9,616c0,0,6.9-0.2,8.9-1.7c2.1-1.5,10.5-3.3,11-0.8c0.5,2.4,10.3,11.8,2.5,11.8c-7.7,0.1-18-1.2-20-2.5
	C158.3,621.5,157.9,616,157.9,616z"/>
<path class="st7" d="M180.6,624.4c-7.7,0.1-18-1.2-20-2.5c-1.6-0.9-2.2-4.4-2.4-5.9h-0.2c0,0,0.4,5.5,2.5,6.8s12.3,2.5,20,2.5
	c2.3,0,3-0.8,3-2C183,624,182.2,624.4,180.6,624.4z"/>
<ellipse class="st1" cx="434.6" cy="663.8" rx="233.2" ry="10.5"/>
<path class="st8" d="M410.8,347.5c0,0,14.9,28.1,16,32.1c0.6,2.3,2.6,3.9,5,4c0,0,14.8,3.5,18.3,4s34.2,3,34.2,3s7.8,0.2,8.7-2.6
	c0.8-2.6,15.9-16.2,24.6-4.3c1.6,2.2,2.1,5.1,1.3,7.7c-1.6,5.1-4.9,13.2-8.4,8.1c-5-7.1-10.7-5.1-10.7-1.3s-7.9,2.4-10.5,2.9
	c-1.4,0.3-6.3,1.6-10.5,2.7c-4.9,1.3-9.9,2.1-14.9,2.5c-8.4,0.6-20.7,1-25.1-0.6c-5.3-2-14.4-2.5-18.4-2.5c-1.3,0-2.5-0.5-3.6-1.3
	c-5.5-4.2-10.1-9.6-13.7-15.5c-6.2-10.6-18.8-32.6-17.9-39C386.1,341,410.8,347.5,410.8,347.5z"/>
<path class="st9" d="M410.8,347.5c0,0,14.9,28.1,16,32.1c0.6,2.3,2.6,3.9,5,4c0,0,14.8,3.5,18.3,4s34.2,3,34.2,3s7.8,0.2,8.7-2.6
	c0.8-2.6,15.9-16.2,24.6-4.3c1.6,2.2,2.1,5.1,1.3,7.7c-1.6,5.1-4.9,13.2-8.4,8.1c-5-7.1-10.7-5.1-10.7-1.3s-7.9,2.4-10.5,2.9
	c-1.4,0.3-6.3,1.6-10.5,2.7c-4.9,1.3-9.9,2.1-14.9,2.5c-8.4,0.6-20.7,1-25.1-0.6c-5.3-2-14.4-2.5-18.4-2.5c-1.3,0-2.5-0.5-3.6-1.3
	c-5.5-4.2-10.1-9.6-13.7-15.5c-6.2-10.6-18.8-32.6-17.9-39C386.1,341,410.8,347.5,410.8,347.5z"/>
<path class="st10" d="M581.4,560c-6.7,7.3-11.7,10.2-11.5,2.5c0.7-23.4-40.4-129-40.4-129l12.2-0.9
	C568.2,478.2,578.1,525.2,581.4,560z"/>
<path class="st11" d="M639.3,611c-0.1,32.3-26.3,58.3-58.5,58.3c-30.2-0.1-55.4-23.2-58.1-53.4c-0.1-0.9-0.1-1.9-0.2-2.8v-0.1
	c0-0.7-0.1-1.4-0.1-2.1c0-32.3,26.1-58.4,58.4-58.4C613.2,552.5,639.3,578.7,639.3,611L639.3,611z"/>
<circle class="st12" cx="580.9" cy="610.9" r="31.9"/>
<circle class="st11" cx="580.9" cy="610.9" r="19.1"/>
<path class="st11" d="M427.5,500l-140.7,2.8v-20.7c1.3-16.7,18.4-22.5,34-24.4c12.2-1.4,24.5-0.4,36.3,2.7
	c29.9,7.9,48.9,9.4,58.2,9.6c4.2,0.1,7.9,3.1,8.6,7.3c0.4,2.3,0.9,5,1.3,7.5c0.3,2,0.6,4,0.8,5.8C427,495.9,427.5,500,427.5,500z"/>
<path class="st13" d="M539.8,614.7H247.6c-4.6,0.1-8.8-2.7-10.6-6.9c-2.2-5.2,0.8-8.6,4.2-10.6c6.7-4,11.8-10.2,14.4-17.6
	c3.1-9.2,6.2-23.6,7.4-46.1c1.2-23.3,9.6-34.8,18.8-40.4l0,0c11.8-7.2,24.6-4.5,24.6-4.5l118.5,0.9c2.1,1,4,2.2,5.8,3.8
	c10.5,9.8-4.8,22.7-4.8,22.7c-33.1,34.9-8,70.3-8,70.3h60.5c11.3,0.1,22.4-3.3,31.7-9.7c8.2-5.7,11.3-11.1,12.6-14.4
	c0.9-2.5,1.9-5.1,3-7.5c15.9-34.5-3.3-90.6-11.5-111.6c-2.1-5.2-3.4-8.3-3.4-8.3l19-1.4l12-0.9h0.1c26.5,45.7,36.3,92.7,39.7,127.4
	c0.3,3.3,0.6,6.4,0.8,9.5c1.5,23.4-16.2,43.6-39.7,45.1C541.6,614.7,540.7,614.7,539.8,614.7z"/>
<path class="st4" d="M426.3,490.6H286.8v-5.8h138.5C425.7,486.8,426,488.7,426.3,490.6z"/>
<path class="st4" d="M430.5,493.5H282.7c-0.4,0-0.8-0.1-1.1-0.2c11.8-7.2,24.6-4.5,24.6-4.5l118.5,0.9
	C426.8,490.6,428.7,491.9,430.5,493.5z"/>
<path class="st12" d="M231,486.2h200.7c1.6,0,2.9,1.3,2.9,2.9l0,0c0,1.6-1.3,2.9-2.9,2.9H231c-1.6,0-2.9-1.3-2.9-2.9l0,0
	C228.1,487.5,229.4,486.2,231,486.2z"/>
<path class="st4" d="M581.4,560c-6.7,7.3-11.7,10.2-11.5,2.5c0.7-23.4-40.4-129-40.4-129l12.2-0.9
	C568.2,478.2,578.1,525.2,581.4,560z"/>
<path class="st4" d="M639,604.6c-6.9,1.7-15.6,3.4-26.2,5c-4,0.6-8.2,1.1-12.7,1.7c-10.8,1.3-23.4,2.4-37.9,3.3
	c-4.1,0.2-8.4,0.5-12.8,0.7c-8.3,0.4-17.1,0.6-26.6,0.8l-0.2-2.8v-0.1c13.2-5.3,34-19.5,37.3-56.6c30.1-11.6,63.9,3.4,75.5,33.5
	C637.3,594.7,638.5,599.6,639,604.6L639,604.6z"/>
<path class="st2" d="M511.6,614.7c0,0,67.1-7.3,44-109.5c0,0,33.1,30.4,53.7,47.2c20.6,16.9,57.4,40.1,57.4,40.1
	S644.7,613.2,511.6,614.7z"/>
<path class="st14" d="M511.6,614.7c0,0,67.1-7.3,44-109.5c0,0,33.1,30.4,53.7,47.2c20.6,16.9,57.4,40.1,57.4,40.1
	S644.7,613.2,511.6,614.7z"/>
<circle class="st11" cx="332.4" cy="610.9" r="58.4"/>
<ellipse transform="matrix(0.1602 -0.9871 0.9871 0.1602 -323.8588 841.2337)" class="st12" cx="332.4" cy="610.9" rx="31.9" ry="31.9"/>
<circle class="st11" cx="332.4" cy="610.9" r="19.1"/>
<path class="st4" d="M397.9,593.4c0-37.7-30-68.3-66.9-68.3s-66.9,30.6-66.9,68.3c0,1.6,0.1,3.2,0.1,4.7h133.5
	C397.9,596.6,397.9,595,397.9,593.4z"/>
<path class="st2" d="M395.5,592.2c0-36.3-28.8-65.8-64.4-65.8s-64.4,29.5-64.4,65.8c0,1.6,0.1,3,0.1,4.5h128.6
	C395.4,595.3,395.5,593.7,395.5,592.2z"/>
<path class="st14" d="M395.5,592.2c0,1.1,0,2.1-0.1,3.1c0,0.5-0.1,0.9-0.1,1.4H266.7c0-0.5-0.1-0.9-0.1-1.4
	c-0.1-1.1-0.1-2.1-0.1-3.1c0-36.3,28.8-65.8,64.4-65.8S395.5,555.9,395.5,592.2z"/>
<path class="st4" d="M395.4,595.4c0,0.5-0.1,0.9-0.1,1.4H266.7c0-0.5-0.1-0.9-0.1-1.4H395.4z"/>
<path class="st4" d="M245.9,598.2h158c4.2,0,7.6,3.4,7.6,7.6l0,0c0,4.2-3.4,7.6-7.6,7.6h-158c-4.2,0-7.6-3.4-7.6-7.6l0,0
	C238.4,601.6,241.7,598.2,245.9,598.2z"/>
<path class="st12" d="M245.9,596.8h158c4.2,0,7.6,3.4,7.6,7.6l0,0c0,4.2-3.4,7.6-7.6,7.6h-158c-4.2,0-7.6-3.4-7.6-7.6l0,0
	C238.4,600.2,241.7,596.8,245.9,596.8z"/>
<ellipse transform="matrix(0.9112 -0.412 0.412 0.9112 -147.444 273.6908)" class="st4" cx="561.1" cy="478.8" rx="8.5" ry="21.4"/>
<ellipse transform="matrix(0.9112 -0.412 0.412 0.9112 -147.0891 273.9199)" class="st12" cx="561.8" cy="478.1" rx="8.5" ry="21.4"/>
<path class="st4" d="M541.7,432.6v11.1h-21.6c-2,0-4-0.1-6-0.5c-2.1-5.2-3.4-8.3-3.4-8.3l19-1.4L541.7,432.6z"/>
<path class="st2" d="M541.7,442.2h-21.6c-19,0-34.3-14.2-34.3-31.7v-2.9c0-17.5,15.4-31.7,34.3-31.7l21.6,2V442.2z"/>
<path class="st2" d="M506.1,394.6c0,0,13,6.9,5.5,18.6c0,0-9.1,14.9-23.4,13.5l-5.2-32.1C482.9,394.6,500,393.1,506.1,394.6z"/>
<path class="st4" d="M501.1,394c4.2,0.1,8,2.2,10.5,5.5c2.3,3.2,3.7,7.9-0.1,13.7c0,0-9.1,14.9-23.4,13.5l-5.2-32.1
	C482.9,394.6,493.7,393.6,501.1,394z"/>
<path class="st4" d="M541,377.9h4.2c7.3,0,13.2,5.9,13.2,13.2v38c0,7.3-5.9,13.2-13.2,13.2H541l0,0V377.9L541,377.9z"/>
<path class="st12" d="M541.7,377.9h4.2c7.3,0,13.2,5.9,13.2,13.2v38c0,7.3-5.9,13.2-13.2,13.2h-4.2l0,0V377.9L541.7,377.9z"/>
<path class="st8" d="M388.3,460.5c0,0,3.3,1.2,7.8,2.9c7.1,2.7,17.1,6.7,20.5,8.9c3.5,2.1,16.4,5.7,26.1,8.3
	c7.2,1.8,14.6,2.8,22,2.7c7.5-0.1,16.6-0.1,19.2-0.1c0.4,0,0.8,0,1.3,0.1c2.6,0.4,2.5,2.2,2.5,2.6v0.1
	c-15.6,9.4-34.5,51.7-35.6,58.8c-0.9,5.3-8.6,20-12.5,27c-1.3,2.3-2.1,3.8-2.1,3.8l4.7,5.5l13.7,6.2l13,5.7c0,0,13.7,0.7,13.9,0
	c0.3-0.7,0.2-8,0.2-8c-1.7-1.1-3.3-2.3-4.7-3.6c-3.1-2.8-6.1-5.7-8.7-8.9c-7.6-9,7.6-26.2,7.6-26.2l29-37.7c0,0,2.3-4.2,13.7-21.2
	c11.3-17,0-26.2,0-26.2l-20-8.3c-34.6-12.8-76.3-23.2-76.3-23.2l-0.6-0.1l-8.9-1.1L388.3,460.5z"/>
<path class="st15" d="M477.5,587.2c0,0,2.5,2.9,0.6,3.2c-1.8,0.3-6.7-0.8-6.7-0.8l-30.9-16.3c0,0-3.4-2.4-4.2,2.3
	c-0.8,4.7-1.3,4.2-1.3,4.2s-4.1,8.8,0,10.5c4.1,1.8,28.5,9,28.5,9s35.5,8.1,38.9-1.3s-6-7.7-6-7.7s-11.7-2.8-15.6-8.5
	C480.6,582.1,474.8,583.6,477.5,587.2z"/>
<path class="st9" d="M519.8,461l-20-8.3c-34.6-13-76.3-23.3-76.3-23.3l-0.6-0.1l-8.9-1.1l-25.8,32.3c0,0,3.3,1.2,7.8,2.9
	c7.1,2.7,17.1,6.7,20.5,8.9c3.5,2.1,16.4,5.7,26.1,8.3c7.2,1.8,14.6,2.8,22,2.7c7.5-0.1,16.6-0.1,19.2-0.1c0.4,0,0.8,0,1.3,0.1
	c2.6,0.4,2.5,2.2,2.5,2.6v0.1c-15.6,9.4-34.5,51.7-35.6,58.8c-0.9,5.3-8.6,20-12.5,27l-0.5,0.9c-1.1-0.1-2.3,0.2-2.8,2.9
	c-0.8,4.7-1.3,4.2-1.3,4.2s-4.1,8.8,0,10.5c4.1,1.8,28.5,9,28.5,9s35.5,8.1,38.9-1.3c3.4-9.3-6-7.7-6-7.7s-11.7-2.8-15.6-8.5
	c-0.4,0.1-0.7,0.2-1.1,0.4c-0.4-0.4-0.8-0.7-1.3-1.1c-3.1-2.8-6.1-5.7-8.7-8.9c-7.6-9,7.6-26.2,7.6-26.2l29-37.7
	c0,0,2.3-4.2,13.7-21.2C531.2,469.9,519.8,461,519.8,461z"/>
<path class="st8" d="M364.5,302.6l1.1,1.3l0.6,0.8l3.8,4.7c0,0,9,2.9,16.8,4.7c8.1,1.9,15.2,2.8,9.6-1.8c-3.5-2.8-3.7-7.6-2.4-12.8
	c1.1-4,2.5-7.8,4.5-11.4c0.3-0.6,0.6-1.1,0.8-1.6c1.8-3.3,3.7-6.4,5.8-9.4c-5-3.5-10.3-6.7-15.6-9.6c-6.5-3.3-11.8-4.8-8.4,1.8
	c2.2,4.2,1.5,9-0.6,13.6c-0.1,0.4-0.4,0.7-0.5,1.1c-1.8,3.5-4,6.9-6.7,9.8C370.6,297,367.7,299.9,364.5,302.6z"/>
<polygon class="st15" points="409.4,410.4 414.2,414.8 418.8,432.7 411.1,432.7 402.5,421.5 "/>
<polygon class="st4" points="402.5,421.5 407.7,428.3 411.1,432.7 418.8,432.7 418,429.6 414.7,416.7 414.2,414.8 409.4,410.4 
	402.8,421.1 "/>
<polygon class="st4" points="402.5,421.5 407.7,428.3 411.1,432.7 418.8,432.7 418,429.6 414.7,416.7 414.2,414.8 409.4,410.4 
	402.8,421.1 "/>
<path class="st8" d="M376.8,468.5c0,0,3.3,1.2,7.8,2.9c7.1,2.7,17.1,6.7,20.5,8.9c3.5,2.1,16.4,5.7,26.1,8.3
	c7.2,1.8,14.6,2.8,22,2.7c7.5-0.1,16.6-0.1,19.2-0.1c0.4,0,0.8,0,1.3,0.1c2.6,0.4,2.5,2.2,2.5,2.6v0.1
	c-15.6,9.4-34.5,51.7-35.6,58.8c-0.9,5.3-8.6,20-12.5,27c-1.3,2.3-2.1,3.8-2.1,3.8l4.7,5.5l13.7,6.2l13,5.7c0,0,13.7,0.7,13.9,0
	s0.2-8,0.2-8c-1.7-1.1-3.3-2.3-4.7-3.6c-3.1-2.8-6.1-5.7-8.7-8.9c-7.6-9,7.6-26.2,7.6-26.2l29-37.7c0,0,2.3-4.2,13.7-21.2
	c11.3-17,0-26.2,0-26.2l-18.2-10.4c-28.3-17.2-68.2-27.1-68.2-27.1l-0.6-0.1l-8.9-1.1L376.8,468.5z"/>
<path class="st4" d="M425.9,583.7l4.7,5.5l13.7,6.2l13,5.7c0,0,13.7,0.7,13.9,0c0.3-0.7,0.2-8,0.2-8c-1.7-1.1-3.3-2.3-4.7-3.6
	c-1.5,0.8-3.1,2.3-1.6,4.5c0,0,2.5,2.9,0.6,3.2c-1.8,0.3-6.7-0.8-6.7-0.8L428.2,580l-0.2-0.1C426.8,582.2,425.9,583.7,425.9,583.7z"
	/>
<path class="st15" d="M465.9,595.2c0,0,2.5,2.9,0.6,3.2c-1.8,0.3-6.7-0.8-6.7-0.8L429,581.3c0,0-3.4-2.4-4.2,2.3
	c-0.8,4.7-1.3,4.2-1.3,4.2s-4.1,8.8,0,10.5c4.1,1.8,28.5,9,28.5,9s35.5,8.1,38.9-1.3c3.4-9.3-6-7.7-6-7.7s-11.7-2.8-15.6-8.5
	C469.1,590.1,463.4,591.6,465.9,595.2z"/>
<path class="st4" d="M378.7,281.1c4.1,2.8,10.3,7.3,15.6,7.3c1.3,0,2.8-0.1,4.1-0.4c2-3.8,4.2-7.5,6.7-11c0,0-31.2-21.7-24.1-7.8
	C383.4,273.9,381.1,276.2,378.7,281.1z"/>
<path class="st8" d="M368.9,261.5c0,8.6,4.4,16.7,11.6,21.4c0.8,0.5,1.6,1,2.5,1.4c12.6,6.3,27.9,1.1,34.2-11.4
	c6.3-12.6,1.1-27.9-11.4-34.2c-12.6-6.3-27.9-1.1-34.2,11.4C369.8,253.7,368.9,257.6,368.9,261.5L368.9,261.5z"/>
<path class="st4" d="M376.8,468.5c0,0,3.3,1.2,7.8,2.9c2.8-2.5,5.7-4.8,6.9-5.3c2.6-0.9,11.1-5.9,10.8-7.3c-0.3-1.4,3.5-6.9,6.9-7.8
	c3.3-0.9,1.4-5.9,1.4-5.9s6.4-2.3,7.9-5.7s6.4-7.6,4.8-7.3c-0.7-0.1-1.4-0.4-2-0.8l-8.9-1.1L376.8,468.5z"/>
<path class="st15" d="M357.4,460c0,0,10.8,9,11.3,13c0.5,4,7.8,3.8,7.8,3.8s10.8-10.4,13.5-11.3s11.1-5.9,10.8-7.3
	c-0.3-1.4,3.5-6.9,6.9-7.8c3.3-0.9,1.4-5.9,1.4-5.9s6.4-2.3,7.9-5.7s6.4-7.6,4.8-7.3c-0.5,0.1-2-0.7-3.9-1.8c-2.3-1.4-5.3-3.3-7.7-5
	c-2.5-1.7-4.5-3.1-4.5-3.1s-1.1-0.2-3-0.5c-10.3-1.5-43.8-5.3-51.5,7.1c-1.1,1.6-1.8,3.4-2.3,5.3C345.5,446.6,357.4,460,357.4,460z"
	/>
<path class="st4" d="M368.8,431.4c0,0-11.1,6.2-15.2,6.2S368.8,431.4,368.8,431.4z"/>
<path class="st4" d="M376.2,436.2c0,0-16.5,5.5-16.5,9.9S358.1,434.4,376.2,436.2z"/>
<path class="st4" d="M415.8,411.2l-0.2,0.4C415.6,411.4,415.7,411.3,415.8,411.2z"/>
<path class="st4" d="M364.5,302.6l1.1,1.3l0.6,0.8l3.8,4.7c0,0,9,2.9,16.8,4.7c8.1,1.9,15.2,2.8,9.6-1.8c-3.5-2.8-3.7-7.6-2.4-12.8
	l-0.2-0.4c0,0,0.2,4.7-2.5,4.9c-3.8,0.1-3.9-1.1-7.4-2.6c-4.5-1.9-9.1-5.1-10.5-7.6C370.6,297,367.7,299.9,364.5,302.6z"/>
<path class="st4" d="M349,433.4c1.9,0.8,4.1,0.8,6.1,0.1c7.3-2.3,18.9-8.1,24.3-5.6c4.3,2,21.9,1.9,28.3,0.3
	c1.6-0.4,2.5-0.9,2.4-1.6c-0.1-0.7,0-1.4,0.2-2.1c0.8-2.4,2.8-5.7,4.3-8.1l-0.5-1.8l-4.8-4.4l-6.6,10.6c-10.3-1.5-43.8-5.3-51.5,7.1
	C350.3,429.8,349.5,431.6,349,433.4z"/>
<path class="st16" d="M344.3,427.9c0,0,2.8,6.6,10.1,4.2c7.3-2.3,18.9-8.1,24.3-5.6c5.4,2.5,31.4,1.8,30.7-1.3
	c-0.7-3,6.4-12.7,6.4-12.7s-3.9-0.7-6.2-13.3c-0.4-1.8-0.7-4-0.9-6.3c-0.6-4.9-0.7-9.8-0.4-14.7c0.9-13.7,5.7-19.3,5.7-19.3
	s6.6-7.6,0.9-17.9c-3-5.5-14.9-20.5-15.1-27.3c-0.1-6.1-6-13.2-6-13.2s0.2,4.7-2.5,4.9c-3.8,0.1-3.9-1.1-7.4-2.6
	c-5.2-2.2-10.5-6-10.8-8.6c0,0-21.7-1.1-26.3,20.9c-4.7,21.9-3,34-2.3,36.6c0.7,2.6,6.9,36.1,1.9,50.3
	C341.2,416.3,344.3,427.9,344.3,427.9z"/>
<path class="st4" d="M379.5,389.4c3.9,6.6,9.1,12.3,15.4,16.8c4.2,0,8.3,0.3,12.4,0.8c-0.4-1.8-0.7-4-0.9-6.3
	c-0.6-4.9-0.7-9.8-0.4-14.7c-1.3-0.7-2.4-1.9-2.8-3.4c-1.2-4-11.7-23.2-11.7-23.2s-24.6-6.4-25.5,0S373.4,378.8,379.5,389.4z"/>
<path class="st8" d="M387.7,347.5c0,0,14.9,28.1,16,32.1c0.6,2.3,2.6,3.9,5,4c0,0,14.8,3.5,18.3,4s34.3,3,34.3,3s7.8,0.2,8.7-2.6
	c0.8-2.6,15.9-16.2,24.6-4.3c1.6,2.2,2.1,5.1,1.3,7.7c-1.6,5.1-4.9,13.2-8.4,8.1c-5-7.1-10.7-5.1-10.7-1.3s-7.9,2.4-10.5,2.9
	c-1.4,0.3-6.3,1.6-10.5,2.7c-4.9,1.3-9.9,2.1-15,2.5c-8.4,0.6-20.7,1-25.1-0.6c-5.2-2-14.4-2.5-18.4-2.5c-1.3,0-2.5-0.5-3.6-1.3
	c-5.5-4.2-10.1-9.6-13.6-15.5c-6.2-10.6-18.8-32.6-17.9-39C363,341,387.7,347.5,387.7,347.5z"/>
<path class="st4" d="M382.7,308.5c0,0,8,13.2,11.7,22.7c3.7,9.4,8.1,26,8.1,26l-22.2-2.6l-1.9-3c0,0-15.9,9.9-13.9,14.2
	s-4.2-6.4-3.8-18.4c0.5-12-1.7-33.5,0-38.7C362.5,303.2,377.5,304.5,382.7,308.5z"/>
<path class="st16" d="M360.8,345.8c-0.5,12,5.7,22.7,3.8,18.4s13.9-14.2,13.9-14.2l1.8,3l22.2,2.6c0,0-4.5-16.5-8.1-26
	c-2.2-5.3-4.7-10.5-7.6-15.6c-2.3-4.1-4-7.1-4-7.1c-3-2.3-9.6-3.8-14.7-3.4c-0.8,0.1-1.6,0.1-2.4,0.3c-2.1,0.4-3.8,1.2-4.6,2.5
	c-0.1,0.2-0.2,0.4-0.3,0.6C359.1,312.3,361.3,333.7,360.8,345.8z"/>
<path class="st4" d="M350.9,378.8c0,0,9.4,13,12.2,13.3C363.1,392,351.1,389.4,350.9,378.8z"/>
<path class="st4" d="M350.9,397.2c0,0,17.7,17.9,23.4,18.1C379.9,415.4,350.9,397.2,350.9,397.2z"/>
<path class="st4" d="M350.9,404.6c0,0,11.3,13.3,12,13.3S350.7,413.3,350.9,404.6z"/>
<path class="st4" d="M361.1,306.5c1.8-0.3,3.6-0.8,5.2-1.8c0.6-0.4,1.2-0.7,1.8-1.1c2.3-1.6,4.5-3.3,6.4-5.3c3.3-3.2,6.5-6.7,7.9-11
	c0.3-1,0.5-2.1,0.6-3c0.8-5.5,0.1-11.5,4-15.2c0.7-0.7,1.6-1.3,2.5-1.7c5.5-2.6,13.5-0.9,17.6-5.7c2.6-3,2.5-7.2,4.6-10.4
	c0.8-1.4,2.5-2.6,3.9-4c-7.7-11.8-23.5-15-35.3-7.3c-11.8,7.7-15,23.5-7.3,35.3c1.9,3,4.5,5.5,7.4,7.4c-0.1,0.4-0.4,0.7-0.5,1.1
	c-4.9,9.9-15.4,18.6-15.4,18.6l1.1,1.3C363.5,304.4,361.8,305.2,361.1,306.5z"/>
<path class="st17" d="M405.7,261.2c-4.8,5.5-14.9,2.3-20.2,7.4c-4.6,4.4-2.8,12.1-4.7,18.2c-1.3,4.3-4.6,7.8-7.9,11
	c-4.7,4.6-10.8,9.3-17.3,8c-3.8-0.8-7.6-3.7-11.3-2.3c-1.8,0.6-3.2,2.3-4.5,3.7c-4.7,4.8-10.8,7.9-17.4,9c-1.3,0.3-2.7,0.2-4-0.2
	c-2-0.8-3-3-4.9-4.1c-3.5-2.3-8.1,0.1-11.8,2.1c-20.8,11.3-45.4,13-67.6,4.9l5.7-2.8c-1.2-2.5-4.5-3-6.6-4.9
	c-4.3-3.8-1.8-11.3,2.8-14.7c4.5-3.4,10.5-4.6,15.2-7.9c1-0.6,1.9-1.5,2.1-2.7c0-0.8-0.3-1.7-0.8-2.3c-2.5-4.5-5.3-9.2-4.7-14.3
	c0.8-7.8,9.3-12.6,17.2-13.1c7.8-0.6,15.6,1.8,23.4,1.9c2.8,0.1,5.8-0.2,8.2-1.7c3.4-2.1,5.1-5.9,7.2-9.3c3.7-6,8.9-10.8,15.2-14
	c7.1-3.6,15.1-4.8,22.4-7.8c7.5-3,14.4-7.8,22.2-9.7c11.4-2.8,23.6,0.8,33.5,7.3c4.7,3.1,19.9,13,19.8,19.3c-0.1,3.8-5,5.8-6.8,8.7
	C408.3,253.9,408.3,258.1,405.7,261.2z"/>
<g class="st18">
	<path d="M252,279.8c0.5,0.7,0.8,1.5,0.8,2.3c0,0.3-0.1,0.6-0.2,0.8c-2.1-3.7-4.2-7.6-4.6-11.7C248.8,274.3,250.5,277.1,252,279.8z"
		/>
	<path d="M232.8,307.4c2.1,1.8,5.4,2.3,6.6,4.9l-2.1,1c-1.3-0.6-2.7-1.4-3.9-2.3c-1.6-1.4-2.4-3.4-2.2-5.5
		C231.6,306.1,232.1,306.8,232.8,307.4z"/>
	<path d="M301.2,310.2c3.7-2.1,8.2-4.3,11.8-2.1c1.8,1.1,2.9,3.3,4.9,4.1c1.3,0.4,2.6,0.5,4,0.2c6.6-1.1,12.7-4.2,17.4-9
		c1.3-1.4,2.7-3,4.5-3.7c3.7-1.3,7.4,1.6,11.3,2.3c6.5,1.3,12.5-3.4,17.3-8c3.3-3.2,6.5-6.7,7.9-11c1.9-6.1,0.1-13.8,4.7-18.2
		c5.3-5,15.4-1.8,20.2-7.4c2.6-3,2.5-7.2,4.6-10.4c1.7-2.8,6.1-4.7,6.7-8c0.5,0.8,0.8,1.8,0.8,2.8c-0.1,3.8-5,5.8-6.8,8.7
		c-2,3.3-2,7.4-4.6,10.4c-4.8,5.5-14.9,2.3-20.2,7.4c-4.6,4.4-2.8,12.1-4.7,18.2c-1.3,4.3-4.6,7.8-7.9,11c-4.7,4.6-10.8,9.3-17.3,8
		c-3.8-0.8-7.6-3.7-11.3-2.3c-1.8,0.6-3.2,2.3-4.5,3.7c-4.7,4.8-10.8,7.9-17.4,9c-1.3,0.3-2.7,0.2-4-0.2c-2-0.8-3-3-4.9-4.1
		c-3.5-2.3-8.1,0.1-11.8,2.1c-20.8,11.3-45.4,13-67.6,4.9l4-2C259.3,322.9,282,320.6,301.2,310.2z"/>
</g>
<path class="st4" d="M476.2,493.9l5.9-2.9v-1.1c0-0.4-4.7,0.5-8.4,1.3C476.4,491.7,476.3,493.5,476.2,493.9z"/>
<ellipse class="st2" cx="481.4" cy="411.3" rx="14.4" ry="17.4"/>
<polygon class="st19" points="343.4,388.6 320.3,411.3 244.4,410.1 265.3,388.6 "/>
<polygon class="st19" points="343.4,466.4 343.4,388.6 320.3,411.3 320.3,487.5 "/>
<polygon class="st19" points="244.4,410.1 244.4,487.5 320.3,487.5 320.3,411.3 "/>
<polygon class="st20" points="244.4,410.1 244.4,487.5 320.3,487.5 320.3,411.3 "/>
<g>
	<g>
		<g>
			<g>
				<path class="st2" d="M292.6,432.6h-1.1c0.2,0,0.4,0,0.6,0C292.2,432.6,292.4,432.6,292.6,432.6z"/>
			</g>
			<g>
				<path class="st2" d="M292.6,432.6h-1.1c0.2,0,0.4,0,0.6,0C292.2,432.6,292.4,432.6,292.6,432.6z"/>
			</g>
		</g>
		<g>
			<path class="st2" d="M302.7,439.2L302.7,439.2c0,5.9-4.7,10.6-10.6,10.6c-5,0-9.1-3.4-10.3-7.9h4.2c1.1,2.3,3.4,4,6.2,4
				c3.7,0,6.7-3,6.7-6.7l0,0c0-1.5-0.5-2.8-1.3-4c-1.1-1.5-2.8-2.5-4.8-2.7c-0.2,0-0.4,0-0.6,0s-0.4,0-0.6,0h-25.5c-2.2,0-4-1.8-4-4
				H292c3.3,0,6.3,1.6,8.3,4c0.6,0.8,1.2,1.7,1.6,2.7C302.4,436.5,302.7,437.8,302.7,439.2z"/>
		</g>
		<g>
			<path class="st2" d="M292.6,432.6h-1.1c0.2,0,0.4,0,0.6,0C292.2,432.6,292.4,432.6,292.6,432.6z"/>
		</g>
		<path class="st2" d="M297.7,439.2h-11.3h-14.9c-2.2,0-4-1.8-4-4h28.5C297,436.3,297.7,437.7,297.7,439.2z"/>
		<path class="st2" d="M297,441.9c-1,1.8-2.8,2.9-5,2.9s-4-1.2-5-2.9H297z"/>
	</g>
	<g class="st21">
		<path class="st2" d="M250.7,457.8v2h3.2c0.4,0,0.9,0.4,0.9,0.9c0,0.4-0.4,0.8-0.9,0.8h-3.2v2.6c0,0.4-0.3,0.8-0.8,0.8
			c-0.6,0-0.9-0.4-0.9-0.8v-7.2c0-0.4,0.4-0.8,0.9-0.8h4.4c0.6,0,0.8,0.4,0.8,0.8s-0.4,0.8-0.8,0.8H250.7L250.7,457.8z"/>
		<path class="st2" d="M256.4,464.8c-0.4-0.2-0.6-0.7-0.4-1.2l3.6-7c0.4-0.6,1.2-0.7,1.6,0l3.5,7c0.5,1-1,1.8-1.5,0.8l-0.6-1.1H258
			l-0.6,1.1C257.3,464.8,256.8,464.9,256.4,464.8z M261.8,461.6l-1.4-3.1l-1.6,3.1H261.8z"/>
		<path class="st2" d="M265.7,458c0.3-2.4,4-2.9,5.7-1.6c0.8,0.7-0.1,1.8-0.8,1.2c-0.9-0.6-3-0.8-3.3,0.4c-0.4,2.1,5.1,0.8,5,4.2
			c-0.1,3.2-4.7,3.3-6.4,1.8c-0.4-0.4-0.4-0.9-0.2-1.2c0.4-0.4,0.7-0.4,1.1-0.1c1,0.7,3.7,1.2,3.9-0.6
			C270.5,460.5,265.3,461.6,265.7,458z"/>
		<path class="st2" d="M276.1,457.7h-2.2c-1.1,0-1.1-1.6,0-1.6h5.9c1.1,0,1.1,1.6,0,1.6h-2.1v6.3c0,1.1-1.6,1.1-1.6,0L276.1,457.7
			L276.1,457.7z"/>
		<path class="st2" d="M290.6,461.8l1.8-5.2c0.4-1,1.9-0.6,1.5,0.6l-2.5,6.7c-0.2,0.7-0.4,0.9-0.8,0.9c-0.4,0-0.6-0.3-0.8-0.7
			l-2.2-5l-2.1,4.9c-0.2,0.5-0.4,0.8-0.9,0.8c-0.4,0-0.6-0.3-0.8-0.8l-2.4-6.8c-0.4-1.1,1.2-1.6,1.6-0.6l1.8,5.2l2.2-5.2
			c0.3-0.8,1.1-0.8,1.4-0.1L290.6,461.8z"/>
		<path class="st2" d="M295.3,456.9c0-1,1.6-1.1,1.6,0v7.2c0,1.1-1.6,1.1-1.6,0V456.9z"/>
		<path class="st2" d="M298.7,457c0-0.4,0.1-0.9,0.8-0.9c0.4,0,0.6,0.1,0.9,0.4l4.2,5.2v-4.9c0-0.4,0.4-0.8,0.8-0.8s0.9,0.4,0.9,0.8
			v7.1c0,0.6-0.4,0.8-0.6,0.8c-0.4,0-0.6-0.1-1-0.4l-4.2-5.2v4.8c0,0.6-0.4,0.8-0.8,0.8s-0.8-0.3-0.8-0.8L298.7,457L298.7,457z"/>
		<path class="st2" d="M315.4,463.9c-0.9,0.7-2,1.1-3.1,1.1c-2.6,0-4.5-1.5-4.5-4.5c0-2.5,2-4.5,4.6-4.5c1,0,2.1,0.4,2.8,1.1
			c0.8,0.8-0.4,1.8-1.1,1.2c-0.5-0.4-1.1-0.8-1.8-0.8c-1.5,0-3,1.2-3,3c0,1.8,1.2,3,2.9,3c0.8,0,1.4-0.2,1.9-0.6v-1.6h-1.9
			c-1.1,0-1-1.6,0-1.6h2.5c0.5,0,0.9,0.4,0.9,0.7v2.7C315.7,463.4,315.6,463.6,315.4,463.9z"/>
	</g>
</g>
</svg>
